<?xml version="1.0" encoding="utf-8"?>
<!-- Generator: Adobe Illustrator 18.1.1, SVG Export Plug-In . SVG Version: 6.00 Build 0)  -->
<!DOCTYPE svg PUBLIC "-//W3C//DTD SVG 1.1//EN" "http://www.w3.org/Graphics/SVG/1.1/DTD/svg11.dtd">
<svg version="1.1" id="Layer_1" xmlns="http://www.w3.org/2000/svg" xmlns:xlink="http://www.w3.org/1999/xlink" x="0px" y="0px"
	 width="422px" height="104px" viewBox="0 0 422 104" enable-background="new 0 0 422 104" xml:space="preserve">
<g>
	<g>
		<path fill-rule="evenodd" clip-rule="evenodd" d="M6.7,79H3.4L3,79.9c-0.1,0.3-0.2,0.5-0.2,0.7c0,0.3,0.1,0.4,0.3,0.6
			c0.1,0.1,0.4,0.1,0.9,0.2v0.3H1v-0.3c0.3,0,0.6-0.2,0.8-0.4c0.2-0.2,0.5-0.7,0.8-1.4l3.3-7.3H6l3.3,7.6c0.3,0.7,0.6,1.2,0.8,1.4
			c0.2,0.1,0.4,0.2,0.7,0.2v0.3H6.3v-0.3h0.2c0.4,0,0.6,0,0.8-0.1c0.1-0.1,0.1-0.2,0.1-0.3c0-0.1,0-0.2,0-0.3c0,0-0.1-0.2-0.2-0.5
			L6.7,79L6.7,79z M6.4,78.5l-1.4-3.2l-1.4,3.2H6.4L6.4,78.5z"/>
		<path d="M16.4,75.3v5c0,0.5,0,0.8,0.1,0.9c0.1,0.1,0.3,0.2,0.5,0.2v0.2h-2.6v-0.8c-0.3,0.4-0.6,0.6-0.9,0.8
			c-0.3,0.2-0.6,0.2-1,0.2c-0.4,0-0.7-0.1-1-0.3c-0.3-0.2-0.5-0.5-0.6-0.8c-0.1-0.3-0.1-0.8-0.1-1.5v-2.5c0-0.5,0-0.8-0.1-0.9
			c-0.1-0.1-0.3-0.2-0.6-0.2v-0.3h2.6v4.3c0,0.5,0,0.7,0.1,0.9c0,0.1,0.1,0.2,0.2,0.3c0.1,0.1,0.2,0.1,0.3,0.1c0.2,0,0.3,0,0.4-0.1
			c0.2-0.1,0.4-0.4,0.7-0.7v-3.4c0-0.5,0-0.8-0.1-0.9c-0.1-0.1-0.3-0.2-0.6-0.2v-0.3H16.4L16.4,75.3z"/>
		<path d="M21.5,75.1l0.1,2.2h-0.2c-0.3-0.6-0.6-1.1-0.9-1.3c-0.3-0.2-0.6-0.4-0.9-0.4c-0.2,0-0.3,0.1-0.5,0.2
			C19.1,76,19,76.1,19,76.3c0,0.1,0,0.2,0.1,0.4c0.1,0.2,0.5,0.5,1.2,1c0.7,0.4,1.1,0.8,1.3,1.1c0.2,0.3,0.3,0.7,0.3,1.1
			c0,0.4-0.1,0.7-0.3,1c-0.2,0.3-0.4,0.6-0.7,0.8c-0.3,0.2-0.7,0.3-1.1,0.3c-0.3,0-0.7-0.1-1.2-0.3c-0.1,0-0.2-0.1-0.3-0.1
			c-0.1,0-0.3,0.1-0.4,0.3h-0.2l-0.1-2.3h0.2c0.2,0.6,0.5,1,0.8,1.3c0.4,0.3,0.7,0.4,1,0.4c0.2,0,0.4-0.1,0.5-0.2
			c0.1-0.1,0.2-0.3,0.2-0.5c0-0.2-0.1-0.4-0.2-0.6c-0.1-0.2-0.4-0.4-0.9-0.7c-0.7-0.5-1.1-0.8-1.3-1.1c-0.3-0.4-0.4-0.8-0.4-1.2
			c0-0.5,0.2-0.9,0.5-1.3c0.3-0.4,0.8-0.6,1.5-0.6c0.3,0,0.7,0.1,1,0.3c0.1,0.1,0.2,0.1,0.3,0.1c0.1,0,0.1,0,0.2,0
			c0,0,0.1-0.1,0.2-0.3H21.5L21.5,75.1z"/>
		<path d="M24.9,73v2.3h1.5V76h-1.5v3.9c0,0.4,0,0.6,0,0.7c0,0.1,0.1,0.2,0.2,0.3c0.1,0.1,0.2,0.1,0.2,0.1c0.3,0,0.6-0.2,0.8-0.7
			l0.2,0.1c-0.4,0.9-1,1.3-1.8,1.3c-0.4,0-0.7-0.1-1-0.3c-0.3-0.2-0.5-0.5-0.5-0.8c0-0.2-0.1-0.6-0.1-1.2V76h-0.8v-0.2
			c0.6-0.4,1.1-0.8,1.5-1.3c0.4-0.4,0.8-0.9,1.1-1.5H24.9L24.9,73z"/>
		<path d="M29.5,75.3v1.4c0.4-0.7,0.8-1.1,1.1-1.3c0.3-0.2,0.6-0.3,0.9-0.3c0.3,0,0.5,0.1,0.6,0.2c0.2,0.2,0.2,0.4,0.2,0.7
			c0,0.3-0.1,0.5-0.2,0.7C32,76.9,31.8,77,31.6,77c-0.2,0-0.4-0.1-0.6-0.2c-0.2-0.2-0.3-0.2-0.3-0.3c0,0-0.1,0-0.2,0
			c-0.1,0-0.3,0-0.4,0.1c-0.2,0.2-0.3,0.4-0.4,0.7c-0.1,0.4-0.2,0.9-0.2,1.5v1.5l0,0.4c0,0.3,0,0.4,0,0.5c0.1,0.1,0.1,0.2,0.2,0.3
			c0.1,0.1,0.3,0.1,0.5,0.1v0.2h-3.4v-0.2c0.3,0,0.5-0.1,0.6-0.2c0.1-0.1,0.1-0.5,0.1-1v-3.5c0-0.4,0-0.6-0.1-0.7
			c0-0.1-0.1-0.2-0.2-0.3c-0.1-0.1-0.2-0.1-0.5-0.1v-0.3H29.5L29.5,75.3z"/>
		<path fill-rule="evenodd" clip-rule="evenodd" d="M35.9,80.7c-0.8,0.7-1.5,1-2.1,1c-0.4,0-0.7-0.1-0.9-0.4
			c-0.2-0.2-0.4-0.5-0.4-0.9c0-0.5,0.2-0.9,0.6-1.3c0.4-0.4,1.3-0.9,2.7-1.5V77c0-0.5,0-0.8-0.1-0.9c0-0.1-0.1-0.2-0.3-0.3
			c-0.1-0.1-0.3-0.1-0.5-0.1c-0.3,0-0.5,0.1-0.7,0.2c-0.1,0.1-0.2,0.2-0.2,0.3c0,0.1,0.1,0.2,0.2,0.4c0.2,0.2,0.3,0.4,0.3,0.6
			c0,0.2-0.1,0.4-0.3,0.6c-0.2,0.2-0.4,0.2-0.6,0.2c-0.3,0-0.5-0.1-0.7-0.3c-0.2-0.2-0.3-0.4-0.3-0.6c0-0.3,0.1-0.6,0.4-0.9
			c0.3-0.3,0.6-0.5,1.1-0.7c0.5-0.2,0.9-0.2,1.4-0.2c0.6,0,1.1,0.1,1.4,0.4c0.4,0.3,0.6,0.5,0.7,0.8c0.1,0.2,0.1,0.6,0.1,1.3v2.5
			c0,0.3,0,0.5,0,0.5c0,0.1,0.1,0.1,0.1,0.2c0,0,0.1,0.1,0.2,0.1c0.1,0,0.2-0.1,0.4-0.3l0.2,0.2c-0.2,0.3-0.5,0.6-0.7,0.7
			c-0.2,0.1-0.5,0.2-0.8,0.2c-0.4,0-0.6-0.1-0.8-0.3C36,81.3,35.9,81.1,35.9,80.7L35.9,80.7z M35.9,80.2v-2.1c-0.5,0.3-1,0.7-1.2,1
			c-0.2,0.2-0.3,0.5-0.3,0.7c0,0.2,0.1,0.4,0.2,0.5c0.1,0.1,0.3,0.2,0.5,0.2C35.3,80.6,35.6,80.5,35.9,80.2L35.9,80.2z"/>
		<path d="M41.4,72.5v7.9c0,0.4,0.1,0.7,0.2,0.9c0.1,0.1,0.3,0.2,0.6,0.2v0.2h-3.4v-0.2c0.3,0,0.5-0.1,0.6-0.2
			c0.1-0.1,0.1-0.4,0.1-0.8v-6.6c0-0.4-0.1-0.7-0.2-0.8c-0.1-0.1-0.3-0.2-0.6-0.2v-0.3H41.4L41.4,72.5z"/>
		<path fill-rule="evenodd" clip-rule="evenodd" d="M44.3,72.2c0.3,0,0.5,0.1,0.7,0.3c0.2,0.2,0.3,0.5,0.3,0.7
			c0,0.3-0.1,0.5-0.3,0.7c-0.2,0.2-0.5,0.3-0.7,0.3c-0.3,0-0.5-0.1-0.7-0.3c-0.2-0.2-0.3-0.5-0.3-0.7c0-0.3,0.1-0.5,0.3-0.7
			C43.8,72.4,44,72.2,44.3,72.2L44.3,72.2z M45.2,75.3v5c0,0.4,0.1,0.7,0.2,0.9c0.1,0.1,0.3,0.2,0.6,0.2v0.2h-3.4v-0.2
			c0.3,0,0.5-0.1,0.6-0.2c0.1-0.1,0.1-0.4,0.1-0.8v-3.7c0-0.4-0.1-0.7-0.2-0.9c-0.1-0.1-0.3-0.2-0.6-0.2v-0.3H45.2L45.2,75.3z"/>
		<path fill-rule="evenodd" clip-rule="evenodd" d="M49.7,80.7c-0.8,0.7-1.5,1-2.1,1c-0.4,0-0.7-0.1-0.9-0.4
			c-0.2-0.2-0.4-0.5-0.4-0.9c0-0.5,0.2-0.9,0.6-1.3c0.4-0.4,1.3-0.9,2.7-1.5V77c0-0.5,0-0.8-0.1-0.9c0-0.1-0.1-0.2-0.3-0.3
			c-0.1-0.1-0.3-0.1-0.5-0.1c-0.3,0-0.5,0.1-0.7,0.2c-0.1,0.1-0.2,0.2-0.2,0.3c0,0.1,0.1,0.2,0.2,0.4c0.2,0.2,0.3,0.4,0.3,0.6
			c0,0.2-0.1,0.4-0.3,0.6c-0.2,0.2-0.4,0.2-0.6,0.2c-0.3,0-0.5-0.1-0.7-0.3c-0.2-0.2-0.3-0.4-0.3-0.6c0-0.3,0.1-0.6,0.4-0.9
			c0.3-0.3,0.6-0.5,1.1-0.7c0.5-0.2,0.9-0.2,1.4-0.2c0.6,0,1.1,0.1,1.4,0.4c0.4,0.3,0.6,0.5,0.7,0.8c0.1,0.2,0.1,0.6,0.1,1.3v2.5
			c0,0.3,0,0.5,0,0.5c0,0.1,0.1,0.1,0.1,0.2c0,0,0.1,0.1,0.2,0.1c0.1,0,0.2-0.1,0.4-0.3l0.2,0.2c-0.2,0.3-0.5,0.6-0.7,0.7
			c-0.2,0.1-0.5,0.2-0.8,0.2c-0.4,0-0.6-0.1-0.8-0.3C49.9,81.3,49.8,81.1,49.7,80.7L49.7,80.7z M49.7,80.2v-2.1
			c-0.5,0.3-1,0.7-1.2,1c-0.2,0.2-0.3,0.5-0.3,0.7c0,0.2,0.1,0.4,0.2,0.5c0.1,0.1,0.3,0.2,0.5,0.2C49.1,80.6,49.4,80.5,49.7,80.2
			L49.7,80.2z"/>
		<path d="M55.2,75.3v0.8c0.3-0.4,0.6-0.6,0.9-0.8c0.3-0.2,0.6-0.2,1-0.2c0.4,0,0.8,0.1,1,0.3c0.3,0.2,0.5,0.5,0.5,0.8
			c0.1,0.3,0.1,0.8,0.1,1.5v2.5c0,0.5,0,0.8,0.1,0.9c0.1,0.1,0.3,0.2,0.6,0.2v0.2h-3.2v-0.2c0.2,0,0.4-0.1,0.5-0.3
			c0.1-0.1,0.1-0.4,0.1-0.8v-2.8c0-0.5,0-0.8-0.1-1c0-0.1-0.1-0.2-0.2-0.3c-0.1-0.1-0.2-0.1-0.3-0.1c-0.4,0-0.8,0.3-1.1,0.8v3.4
			c0,0.5,0,0.8,0.1,0.9c0.1,0.1,0.3,0.2,0.5,0.2v0.2h-3.2v-0.2c0.3,0,0.5-0.1,0.6-0.3c0.1-0.1,0.1-0.4,0.1-0.9v-3.6
			c0-0.5,0-0.8-0.1-0.9c-0.1-0.1-0.3-0.2-0.5-0.2v-0.3H55.2L55.2,75.3z"/>
		<path d="M72,72.3v3.2h-0.3c-0.3-0.9-0.8-1.6-1.4-2c-0.6-0.5-1.3-0.7-2-0.7c-0.7,0-1.3,0.2-1.7,0.6c-0.5,0.4-0.8,0.9-1,1.6
			c-0.2,0.7-0.3,1.4-0.3,2.1c0,0.9,0.1,1.7,0.3,2.3c0.2,0.7,0.5,1.2,1,1.5c0.5,0.3,1,0.5,1.7,0.5c0.2,0,0.4,0,0.7-0.1
			c0.2,0,0.5-0.1,0.7-0.2v-1.9c0-0.4,0-0.6-0.1-0.7c0-0.1-0.2-0.2-0.3-0.3c-0.2-0.1-0.3-0.1-0.6-0.1h-0.2v-0.3H73v0.3
			c-0.3,0-0.6,0.1-0.7,0.1c-0.1,0.1-0.2,0.2-0.3,0.3c0,0.1-0.1,0.3-0.1,0.6v1.9c-0.6,0.3-1.2,0.5-1.8,0.6c-0.6,0.1-1.3,0.2-2,0.2
			c-0.9,0-1.6-0.1-2.2-0.4c-0.6-0.2-1.1-0.6-1.5-0.9c-0.4-0.4-0.8-0.8-1-1.3c-0.3-0.6-0.5-1.3-0.5-2.1c0-1.4,0.5-2.6,1.5-3.5
			c1-1,2.2-1.4,3.7-1.4c0.5,0,0.9,0,1.2,0.1c0.2,0,0.5,0.1,1,0.3c0.4,0.2,0.7,0.3,0.8,0.3c0.1,0,0.2,0,0.4-0.1
			c0.1-0.1,0.2-0.3,0.3-0.5H72L72,72.3z"/>
		<path fill-rule="evenodd" clip-rule="evenodd" d="M76.4,75.1c0.6,0,1.1,0.1,1.5,0.4c0.5,0.3,0.8,0.7,1.1,1.2
			c0.2,0.5,0.4,1.1,0.4,1.7c0,0.9-0.2,1.7-0.7,2.3c-0.6,0.7-1.3,1.1-2.3,1.1c-1,0-1.7-0.3-2.2-1c-0.5-0.7-0.8-1.4-0.8-2.3
			c0-0.9,0.3-1.7,0.8-2.4C74.7,75.5,75.5,75.1,76.4,75.1L76.4,75.1z M76.4,75.6c-0.2,0-0.4,0.1-0.6,0.3c-0.2,0.2-0.3,0.5-0.3,1
			c0,0.5-0.1,1.2-0.1,2.1c0,0.5,0,0.9,0.1,1.4c0,0.3,0.2,0.6,0.3,0.7c0.2,0.2,0.3,0.3,0.6,0.3c0.2,0,0.4-0.1,0.5-0.2
			c0.2-0.2,0.3-0.4,0.4-0.6c0.1-0.4,0.1-1.3,0.1-2.6c0-0.8,0-1.3-0.1-1.6c-0.1-0.3-0.2-0.5-0.4-0.6C76.7,75.7,76.6,75.6,76.4,75.6
			L76.4,75.6z"/>
		<path d="M82.4,81.9l-2.1-4.9c-0.3-0.6-0.5-1-0.6-1.1c-0.1-0.1-0.3-0.2-0.5-0.2v-0.3h3.4v0.3c-0.2,0-0.4,0-0.4,0.1
			c-0.1,0.1-0.2,0.2-0.2,0.4c0,0.2,0.1,0.5,0.3,0.9l1,2.4l0.8-2.1c0.2-0.6,0.4-1,0.4-1.2c0-0.1-0.1-0.3-0.2-0.3
			c-0.1-0.1-0.3-0.1-0.5-0.1v-0.3h2.1v0.3c-0.2,0-0.4,0.1-0.5,0.2c-0.1,0.1-0.3,0.5-0.6,1.1l-2.1,5H82.4L82.4,81.9z"/>
		<path fill-rule="evenodd" clip-rule="evenodd" d="M90.9,78.3h-3.5c0,0.8,0.3,1.5,0.7,2c0.3,0.4,0.7,0.6,1.1,0.6
			c0.3,0,0.5-0.1,0.7-0.2c0.2-0.2,0.5-0.4,0.7-0.8l0.2,0.1c-0.3,0.7-0.7,1.2-1.1,1.5c-0.4,0.3-0.9,0.4-1.4,0.4
			c-0.9,0-1.7-0.4-2.1-1.1c-0.4-0.6-0.6-1.3-0.6-2.2c0-1.1,0.3-1.9,0.9-2.5c0.6-0.6,1.2-0.9,2-0.9c0.6,0,1.2,0.3,1.7,0.8
			C90.6,76.5,90.8,77.2,90.9,78.3L90.9,78.3z M89.2,77.8c0-0.7,0-1.2-0.1-1.5c-0.1-0.3-0.2-0.5-0.4-0.6c-0.1-0.1-0.2-0.1-0.4-0.1
			c-0.2,0-0.4,0.1-0.6,0.3c-0.3,0.4-0.4,1-0.4,1.7v0.2H89.2L89.2,77.8z"/>
		<path d="M93.9,75.3v1.4c0.4-0.7,0.8-1.1,1.1-1.3c0.3-0.2,0.6-0.3,0.9-0.3c0.3,0,0.5,0.1,0.6,0.2c0.2,0.2,0.2,0.4,0.2,0.7
			c0,0.3-0.1,0.5-0.2,0.7C96.4,76.9,96.2,77,96,77c-0.2,0-0.4-0.1-0.6-0.2c-0.2-0.2-0.3-0.2-0.3-0.3c0,0-0.1,0-0.2,0
			c-0.1,0-0.3,0-0.4,0.1c-0.2,0.2-0.3,0.4-0.4,0.7c-0.1,0.4-0.2,0.9-0.2,1.5v1.5l0,0.4c0,0.3,0,0.4,0,0.5c0.1,0.1,0.1,0.2,0.2,0.3
			c0.1,0.1,0.3,0.1,0.5,0.1v0.2h-3.4v-0.2c0.3,0,0.5-0.1,0.6-0.2c0.1-0.1,0.1-0.5,0.1-1v-3.5c0-0.4,0-0.6-0.1-0.7
			c0-0.1-0.1-0.2-0.2-0.3c-0.1-0.1-0.2-0.1-0.5-0.1v-0.3H93.9L93.9,75.3z"/>
		<path d="M99.7,75.3v0.8c0.3-0.4,0.6-0.6,0.9-0.8c0.3-0.2,0.6-0.2,1-0.2c0.4,0,0.8,0.1,1,0.3c0.3,0.2,0.5,0.5,0.5,0.8
			c0.1,0.3,0.1,0.8,0.1,1.5v2.5c0,0.5,0,0.8,0.1,0.9c0.1,0.1,0.3,0.2,0.6,0.2v0.2h-3.2v-0.2c0.2,0,0.4-0.1,0.5-0.3
			c0.1-0.1,0.1-0.4,0.1-0.8v-2.8c0-0.5,0-0.8-0.1-1c0-0.1-0.1-0.2-0.2-0.3c-0.1-0.1-0.2-0.1-0.3-0.1c-0.4,0-0.8,0.3-1.1,0.8v3.4
			c0,0.5,0,0.8,0.1,0.9c0.1,0.1,0.3,0.2,0.5,0.2v0.2h-3.2v-0.2c0.3,0,0.5-0.1,0.6-0.3c0.1-0.1,0.1-0.4,0.1-0.9v-3.6
			c0-0.5,0-0.8-0.1-0.9c-0.1-0.1-0.3-0.2-0.6-0.2v-0.3H99.7L99.7,75.3z"/>
		<path d="M107.1,75.3v0.8c0.3-0.4,0.7-0.6,1-0.8c0.3-0.2,0.6-0.2,1-0.2c0.4,0,0.7,0.1,1,0.3c0.3,0.2,0.5,0.5,0.6,0.9
			c0.4-0.4,0.7-0.7,1-0.9c0.3-0.2,0.7-0.3,1-0.3c0.4,0,0.8,0.1,1,0.3c0.3,0.2,0.4,0.5,0.5,0.8c0.1,0.3,0.2,0.8,0.2,1.5v2.6
			c0,0.5,0,0.8,0.1,0.9c0.1,0.1,0.3,0.2,0.6,0.2v0.2h-3.3v-0.2c0.3,0,0.4-0.1,0.6-0.3c0.1-0.1,0.1-0.4,0.1-0.8v-2.7
			c0-0.6,0-0.9-0.1-1.1c0-0.2-0.1-0.3-0.2-0.3c-0.1-0.1-0.2-0.1-0.3-0.1c-0.2,0-0.4,0.1-0.6,0.2c-0.2,0.1-0.4,0.4-0.6,0.6v3.4
			c0,0.5,0,0.7,0.1,0.9c0.1,0.2,0.3,0.3,0.6,0.3v0.2h-3.3v-0.2c0.2,0,0.3-0.1,0.4-0.1c0.1-0.1,0.2-0.2,0.2-0.3
			c0-0.1,0.1-0.4,0.1-0.7v-2.7c0-0.6,0-0.9-0.1-1.1c0-0.1-0.1-0.3-0.2-0.3c-0.1-0.1-0.2-0.1-0.3-0.1c-0.2,0-0.3,0-0.5,0.1
			c-0.2,0.1-0.4,0.4-0.7,0.7v3.4c0,0.4,0,0.7,0.1,0.9c0.1,0.1,0.3,0.2,0.6,0.3v0.2h-3.3v-0.2c0.3,0,0.5-0.1,0.6-0.3
			c0.1-0.1,0.1-0.4,0.1-0.9v-3.6c0-0.5,0-0.8-0.1-0.9c-0.1-0.1-0.3-0.2-0.6-0.2v-0.3H107.1L107.1,75.3z"/>
		<path fill-rule="evenodd" clip-rule="evenodd" d="M120.8,78.3h-3.5c0,0.8,0.3,1.5,0.7,2c0.3,0.4,0.7,0.6,1.1,0.6
			c0.3,0,0.5-0.1,0.7-0.2c0.2-0.2,0.5-0.4,0.7-0.8l0.2,0.1c-0.3,0.7-0.7,1.2-1.1,1.5c-0.4,0.3-0.9,0.4-1.4,0.4
			c-0.9,0-1.7-0.4-2.1-1.1c-0.4-0.6-0.6-1.3-0.6-2.2c0-1.1,0.3-1.9,0.9-2.5c0.6-0.6,1.2-0.9,2-0.9c0.6,0,1.2,0.3,1.7,0.8
			C120.6,76.5,120.8,77.2,120.8,78.3L120.8,78.3z M119.2,77.8c0-0.7,0-1.2-0.1-1.5c-0.1-0.3-0.2-0.5-0.4-0.6
			c-0.1-0.1-0.2-0.1-0.4-0.1c-0.2,0-0.4,0.1-0.6,0.3c-0.3,0.4-0.4,1-0.4,1.7v0.2H119.2L119.2,77.8z"/>
		<path d="M123.7,75.3v0.8c0.3-0.4,0.6-0.6,0.9-0.8c0.3-0.2,0.6-0.2,1-0.2c0.4,0,0.8,0.1,1,0.3c0.3,0.2,0.5,0.5,0.5,0.8
			c0.1,0.3,0.1,0.8,0.1,1.5v2.5c0,0.5,0,0.8,0.1,0.9c0.1,0.1,0.3,0.2,0.6,0.2v0.2h-3.2v-0.2c0.2,0,0.4-0.1,0.5-0.3
			c0.1-0.1,0.1-0.4,0.1-0.8v-2.8c0-0.5,0-0.8-0.1-1c0-0.1-0.1-0.2-0.2-0.3c-0.1-0.1-0.2-0.1-0.3-0.1c-0.4,0-0.8,0.3-1.1,0.8v3.4
			c0,0.5,0,0.8,0.1,0.9c0.1,0.1,0.3,0.2,0.5,0.2v0.2h-3.2v-0.2c0.3,0,0.5-0.1,0.6-0.3c0.1-0.1,0.1-0.4,0.1-0.9v-3.6
			c0-0.5,0-0.8-0.1-0.9c-0.1-0.1-0.3-0.2-0.5-0.2v-0.3H123.7L123.7,75.3z"/>
		<path d="M130.6,73v2.3h1.5V76h-1.5v3.9c0,0.4,0,0.6,0,0.7c0,0.1,0.1,0.2,0.2,0.3c0.1,0.1,0.2,0.1,0.2,0.1c0.3,0,0.6-0.2,0.8-0.7
			l0.2,0.1c-0.4,0.9-1,1.3-1.8,1.3c-0.4,0-0.7-0.1-1-0.3c-0.3-0.2-0.5-0.5-0.5-0.8c0-0.2-0.1-0.6-0.1-1.2V76h-0.8v-0.2
			c0.6-0.4,1.1-0.8,1.5-1.3c0.4-0.4,0.8-0.9,1.1-1.5H130.6L130.6,73z"/>
		<path d="M55.6,56c0,0.1-0.1,0.1-0.2,0.2"/>
		<path d="M57.2,43.6c0.2,0,0.3-0.1,0.3-0.3c0-0.2-0.1-0.3-0.3-0.3c-0.2,0-0.3,0.2-0.3,0.3C56.8,43.5,57,43.6,57.2,43.6L57.2,43.6z"
			/>
		<path d="M72.6,29.6L72.6,29.6l-12,0v0h0l0,9.7c0,0.9,0.4,1.7,0.9,2l4.6,2.8c0.1,0.1,0.3,0.2,0.4,0.2c0.1,0,0.3-0.1,0.4-0.1
			l4.7-2.8c0.5-0.3,0.9-1.1,0.9-2L72.6,29.6L72.6,29.6L72.6,29.6z M64.6,32.4h-1v-2.5h1V32.4L64.6,32.4z M63.8,33.2l0.1-0.2
			l-0.1-0.2l0.2,0l0.1-0.2l0.1,0.2l0.2,0l-0.1,0.2l0.1,0.2l-0.2,0v0.2l-0.2-0.1L64,33.5v-0.2L63.8,33.2L63.8,33.2z M60.9,36.3V34
			h1.3v2.4H60.9L60.9,36.3z M61.1,32.9l0.2,0l0.1-0.2l0.1,0.2l0.2,0l-0.1,0.2l0.1,0.2l-0.2,0v0.2l-0.2-0.1l-0.2,0.1v-0.2l-0.2,0
			l0.1-0.2L61.1,32.9L61.1,32.9z M62.6,35.3l0.2,0l0.1-0.2l0.1,0.2l0.2,0l-0.1,0.2l0.1,0.2l-0.2,0v0.2l-0.2-0.1l-0.2,0.1v-0.2
			l-0.2,0l0.1-0.2L62.6,35.3L62.6,35.3z M63.4,33.4c0-0.1-0.1-0.1-0.1-0.1c-0.1,0-0.2,0.2-0.3,0.2c-0.1,0-0.1,0-0.1-0.1
			c0-0.1,0.1-0.1,0.2-0.2c-0.8,0-0.8,0.4-0.9,0.4c-0.2,0,0.2-0.4,0.3-0.5c-0.2,0-0.2-0.2-0.4-0.3c0.1-0.1,0.1-0.1,0.2,0
			c0-0.1,0.1-0.2,0.2-0.2c0.3,0,0.2,0.3,0.3,0.3c0.1,0,0-0.3,0.2-0.3c0.3,0,0.8,0.9,0.4,0.9C63.3,33.6,63.4,33.4,63.4,33.4
			L63.4,33.4z M62.5,30.8l0.1-0.2l-0.1-0.2l0.2,0l0.1-0.2l0.1,0.2l0.2,0l-0.1,0.2l0.1,0.2l-0.2,0v0.2l-0.2-0.1l-0.2,0.1v-0.2
			L62.5,30.8L62.5,30.8z M62.2,29.9v2.5h-1.3v-2.5H62.2L62.2,29.9z M64.6,42.7L61.7,41c-0.5-0.3-0.7-0.9-0.8-1.6v-2.7h3.6V42.7
			L64.6,42.7z M63.5,36.3V34h1v2.4H63.5L63.5,36.3z M68.3,42.9L67,43.7h0c-0.1,0.1-0.2,0.1-0.3,0.1c-0.1,0-0.3,0-0.4-0.1l-1.3-0.8
			v-6.2h3.4V42.9L68.3,42.9z M68.3,36.3h-3.4v-6.4h3.4V36.3L68.3,36.3z M72.2,39.4c-0.1,0.7-0.3,1.3-0.8,1.6l-2.9,1.7v-6h3.6V39.4
			L72.2,39.4z M72.2,36.3h-3.6v-6.4h3.6V36.3L72.2,36.3z"/>
		<path d="M64.4,38.9c0,0-0.5,0.1-0.3,0.1c0-0.1,0.3-0.4,0.4-0.5c0-0.2-0.2,0-0.4,0.1c0.7-1,0.2-0.6-0.1-0.5c0.6-0.7,0.4-0.6,0-0.4
			c0.4-0.3,0.4-0.6,0.4-0.7c-0.3,0.4-0.6,0.4-0.6,0.8c0,0.3-0.1,0.7-0.2,0.9c-0.2,0.2,0-0.7-0.5-0.7c-0.1,0-0.5,0-0.6,0.2
			c0.1,0,0.2,0.2,0.2,0.3c0,0.1,0.1,0.4-0.1,0.4c-0.2,0-0.3-0.3-0.3-0.5c0-0.2,0-0.1,0-0.4c0-0.4-0.6-0.9-0.9-0.9
			c0,0.3,0.4,0.3,0.4,0.7c-0.1,0-0.4-0.3-0.4-0.1s0.2,0.2,0.2,0.4c0,0.2-0.3-0.1-0.3,0.1c0,0.1,0.1,0.1,0.2,0.3c-0.1,0-0.2,0-0.2,0
			c0,0,0,0.1,0.1,0.2c0,0-0.1,0.1-0.1,0.3c0,0.8,0.5,1.1,0.8,1.1c0.2,0,0.2-0.2,0.2-0.3c0,0.1,0.1-0.1,0.1,0.2
			c0,0.2-0.2,0.1-0.2,0.3c0,0.3,0.4,0,0.4,0.3c0,0.4,0,0.4,0,0.5c0,0.1,0.4-0.1,0.4-0.2c0.1,0,0.1,0.3,0.3,0.3
			c0.1,0,0.1-0.3,0.2-0.3c-0.1,0,0.4,0.3,0.4,0.1c0-0.4-0.1-0.2-0.1-0.4c0-0.2,0.5-0.2,0.4-0.3c-0.1-0.1-0.1,0-0.2-0.2
			c0,0-0.4-0.6,0.1-0.3C64.4,40,64.4,38.9,64.4,38.9L64.4,38.9z"/>
		<path d="M77.2,41.4c0.2,0,0.4-0.2,0.4-0.3c0-0.2-0.2-0.3-0.4-0.3c-0.2,0-0.4,0.2-0.4,0.3C76.8,41.2,77,41.4,77.2,41.4L77.2,41.4z"
			/>
		<path d="M75.6,42.3c0.2,0,0.4-0.2,0.4-0.3c0-0.2-0.2-0.3-0.4-0.3c-0.2,0-0.4,0.2-0.4,0.3C75.2,42.2,75.4,42.3,75.6,42.3L75.6,42.3
			z"/>
		<path d="M56.6,44.5c0.2,0,0.4-0.2,0.4-0.3c0-0.2-0.2-0.3-0.4-0.3c-0.2,0-0.4,0.2-0.4,0.3C56.2,44.4,56.4,44.5,56.6,44.5L56.6,44.5
			z"/>
		<path d="M57.9,44.6c0.2,0,0.4-0.2,0.4-0.3c0-0.2-0.2-0.3-0.4-0.3c-0.2,0-0.4,0.2-0.4,0.3C57.5,44.5,57.7,44.6,57.9,44.6L57.9,44.6
			z"/>
		<path d="M92,28.1c0.6,0.7,0.7,1.8,0.3,2.6c-0.2,0-0.2-0.3-0.2-0.5c-0.4-0.8-0.8-1.8-0.4-2.7C91.9,27.6,91.8,27.9,92,28.1L92,28.1z
			"/>
		<path d="M41.9,29c-0.1,0.5-0.1,1.2,0,1.7c-0.1,0.1-0.1-0.1-0.2-0.1c-0.8-0.6-0.4-1.7-0.6-2.6c0-0.1,0.1-0.1,0.2,0
			C41.7,28.3,41.9,28.6,41.9,29L41.9,29z"/>
		<path d="M93.8,29.1c0.1,0.2-0.1,0.5-0.3,0.6c-0.2,0-0.4-0.1-0.5-0.2c-0.1-0.2,0.1-0.4,0.3-0.5C93.4,28.9,93.6,28.9,93.8,29.1
			L93.8,29.1z"/>
		<path d="M40.7,30c0,0.2-0.1,0.4-0.3,0.5c-0.1,0-0.3,0-0.4-0.1c-0.1-0.1-0.1-0.3-0.1-0.4c0.1-0.1,0.3-0.2,0.4-0.2
			C40.5,29.8,40.6,29.9,40.7,30L40.7,30z"/>
		<path d="M94.6,30.4c0,0.1,0,0.2,0,0.3c-0.1,0.2-0.4,0.3-0.6,0.2c-0.1-0.1-0.2-0.2-0.2-0.4c0-0.2,0.2-0.3,0.4-0.4
			C94.3,30.2,94.4,30.3,94.6,30.4L94.6,30.4z"/>
		<path d="M93.4,30.4c0.2,0.1,0,0.3,0,0.4c-0.1,0.1-0.2,0.3-0.4,0.2c-0.1-0.1-0.2-0.1-0.3-0.3c0-0.2,0.1-0.4,0.3-0.5
			C93.1,30.3,93.3,30.3,93.4,30.4L93.4,30.4z"/>
		<path d="M91.9,30.7c0,0.2,0,0.5-0.3,0.6c-0.3,0.1-0.4-0.1-0.5-0.3c0-0.2,0.1-0.4,0.3-0.5C91.6,30.5,91.7,30.6,91.9,30.7L91.9,30.7
			z"/>
		<path d="M42.9,30.8c0.1,0.2-0.1,0.3-0.3,0.4c-0.1,0-0.3-0.1-0.4-0.2c-0.1-0.1,0-0.3,0.1-0.4C42.5,30.5,42.9,30.6,42.9,30.8
			L42.9,30.8z"/>
		<path d="M41.7,30.9c0,0.2-0.1,0.3-0.2,0.4c-0.2,0.1-0.3-0.1-0.4-0.2c-0.1-0.2,0-0.4,0.2-0.5C41.5,30.5,41.6,30.7,41.7,30.9
			L41.7,30.9z"/>
		<path d="M86.8,31c0.2,0.4,0.4,1,0.4,1.5c-0.1,0.4,0.1,0.9-0.2,1.2c-0.3-0.1-0.3-0.5-0.5-0.7c-0.4-0.7,0-1.6,0.1-2.3
			C86.7,30.7,86.7,30.9,86.8,31L86.8,31z"/>
		<path d="M40.7,31.2c0.1,0.3-0.1,0.4-0.3,0.5c-0.3,0.1-0.4-0.1-0.5-0.3c0-0.2,0.1-0.4,0.3-0.5C40.4,30.9,40.6,31,40.7,31.2
			L40.7,31.2z"/>
		<path d="M90.1,31.8c0.3,0.6,0.3,1.3,0.1,2L90.1,34c-0.3-0.6-0.7-1.1-0.9-1.7c0-0.4,0.1-0.8,0.3-1.2c0.1-0.1,0.2,0,0.3,0.1
			C89.8,31.4,89.9,31.7,90.1,31.8L90.1,31.8z"/>
		<path d="M92.7,31.5c0,0.2-0.1,0.4-0.3,0.5c-0.2,0-0.4,0-0.5-0.3c-0.1-0.2,0.1-0.4,0.2-0.5C92.4,31.1,92.6,31.3,92.7,31.5
			L92.7,31.5z"/>
		<path d="M41.7,32.1c0,0.2-0.1,0.4-0.3,0.4c-0.2,0.1-0.3-0.1-0.4-0.1c-0.1-0.2-0.1-0.3,0-0.5c0.1-0.1,0.2-0.1,0.3-0.2
			C41.5,31.8,41.7,31.9,41.7,32.1L41.7,32.1z"/>
		<path d="M42.6,32c0.1,0.2-0.1,0.3-0.2,0.4c-0.3,0.1-0.4-0.1-0.5-0.3c0-0.2,0.1-0.3,0.2-0.5C42.4,31.7,42.5,31.8,42.6,32L42.6,32z"
			/>
		<path d="M93.3,31.9c0,0.3-0.4,0.5-0.5,0.8c-0.2,0.6-0.7,1-1.3,1.2c-0.1,0.1-0.3,0.3-0.5,0.3c0-0.4,0.3-0.8,0.6-1.2
			C92.1,32.5,92.7,32.1,93.3,31.9L93.3,31.9z"/>
		<path d="M41.3,32.8c0.3,0.4,0.5,0.7,0.9,1c0,0.1,0,0.2-0.1,0.2c-1-0.1-1.7-1.1-2.2-1.9c0.1-0.2,0.3,0,0.5-0.1
			C40.6,32.4,41,32.5,41.3,32.8L41.3,32.8z"/>
		<path d="M93.6,33.1c0,0.9-0.5,1.8-1.3,2.3c-0.2,0.1-0.5,0.3-0.7,0.2c0.4-0.9,1.1-1.6,1.8-2.4H93.6L93.6,33.1z"/>
		<path d="M89.6,33.7c0.1,0.3-0.1,0.5-0.4,0.6c-0.2,0-0.4-0.2-0.5-0.3c0-0.2,0.1-0.4,0.3-0.5c0.1-0.1,0.2-0.1,0.3-0.1
			C89.4,33.5,89.5,33.6,89.6,33.7L89.6,33.7z"/>
		<path d="M40.1,33.9c0.4,0.3,0.8,0.7,1.1,1c-0.3,0.2-0.6,0-0.9,0c-0.7-0.3-1.2-0.9-1.9-1.1c0-0.2,0.3-0.1,0.4-0.2
			C39.3,33.6,39.7,33.8,40.1,33.9L40.1,33.9z"/>
		<path d="M62.5,27.7c-1.2-0.5-1.9,0.8-3.1,0.6c-0.1,0.1-0.1,0.2-0.2,0.3c-0.1,0.1-0.2,0-0.2,0c-0.1-0.5-0.2-1-0.3-1.5
			c-0.1-0.2-0.1-0.5-0.2-0.7c-0.7-1.8,1.6-0.4,2.1-1.5c0.4-0.9-0.8-1-1.1-1.7V23c-0.3-0.3-0.7-0.4-0.9-0.9c0.1-0.5,0.2-1.1,0.1-1.6
			c0-0.1-0.1-0.3-0.3-0.2c-0.4,0.5-0.7,1-1.1,1.5c-0.4-0.3-0.8-0.7-1.2-0.9c-0.3,0-0.6-0.4-1-0.2c-0.1,0.1,0,0.2,0.1,0.3
			c0,0.8,0.4,1.5,1,2.1l0.1,0.3c-0.4,0.9-0.3,1.9-0.4,2.8c-0.9,2.4-2.5,4.7-4.5,6.4c-1.2,1.3-2.6,2.7-2.8,4.5
			c-0.1,0.3,0,0.7-0.2,0.9c-0.7-0.3-1.4-0.6-1.9-1c-1-0.7-2.3-0.6-3-1.8c-0.3-0.5,0.1-1,0.3-1.3c0.7-0.7,0.6-1.9,0.2-2.7
			c-0.1,0-0.1,0.1-0.2,0.1c-0.1,1.2-1,2.1-0.7,3.5c0.1,0.4,0.3,0.7,0.4,1c-0.1,0-0.4,0-0.5-0.1c-0.5-0.1-0.9-0.3-1.4-0.2
			c-1,0.4-2.3-0.1-3.1,0.8c-0.1,0-0.3,0-0.3,0.2c0.5,0,0.9,0.1,1.4,0.1c0.7,0.1,1.2-0.5,1.7-0.8h0.1c0.2-0.2,0.6-0.1,0.8-0.1
			c1.3,0.1,2.3,0.8,3.4,1.4V37c-0.4,0.2-0.9,0.3-1.3,0.5c-0.5,0.4-1,0.8-1.2,1.4c-0.3,0.5,0.1,1,0.3,1.4c0,0.2,0,0.5,0.2,0.5
			c0.7-0.7,0-1.6,0.1-2.4c0.2-0.6,0.8-0.9,1.4-1.1c1.2-0.5,2,0.5,3,1c0,1,0.1,1.9-0.1,2.8c-0.3,0.1-0.7,0.2-1,0.1
			c-1.7,0.1-2.9,1-4.4,1.5c-0.7,0.2-1.5,0.2-2.1,0.5c0.5,0.1,1.1,0,1.6-0.1c2-0.3,3.6-1.9,5.8-1.6l0,0.1c-0.3,0.5-0.6,1-1,1.4
			c-0.1-0.2-0.1-0.4-0.3-0.5c-0.2-0.1-0.4,0-0.5,0.2c-0.1,0.1-0.1,0.2,0,0.3c0.1,0.2,0.3,0.2,0.5,0.3c0,0.2-0.3,0.3-0.4,0.4
			c-0.6,1-1.8,0.6-2.5,1.3c-0.1,0.1-0.5,0.2-0.3,0.5c0.8,0.1,1.6-0.1,2.2-0.5c0.8-0.9,1.6-1.7,2.4-2.5c0.1,0.7-0.1,1.4-0.5,1.9
			c-0.2-0.1-0.3-0.3-0.6-0.3c-0.2,0-0.4,0.3-0.4,0.4c0.1,0.1,0.2,0.3,0.3,0.4c-0.7,0.5-1.6,0.5-2.4,0.8c-1.5,0.2-3,0.3-4.6,0.3
			c-0.7,0-1.6,0.2-2.3,0c-0.8,0.1-1.7-0.1-2.3,0.3c-0.1,0.1,0,0.2,0,0.3c1,0.6,2.3,0.1,3.4,0.3h8.2c0.6,0,1.2,0,1.7-0.3
			c1.1-0.6,1.7-1.7,2.2-2.8c0.2-0.4,0.4-0.8,0.4-1.3c0.2-0.7,0.9-1.2,1.6-1.3c0.1,1.1-0.1,2.2-0.4,3.2c-0.1,0.7-0.6,1.3-0.3,2
			c0.1,0.3,0.4,0.3,0.7,0.4c2.5,0,5.1-0.1,7.7,0c0.5,0.1,0.9,0.2,1.4,0.2c0-0.1,0.2-0.1,0.1-0.2c-0.1-0.2-0.2-0.5-0.5-0.6
			c0-0.1-0.2-0.1-0.3-0.2c-1.3-0.8-2.9-0.4-4.5-0.3c-0.8,0.1-1.6,0.2-2.3-0.2c-0.3-0.4-0.1-1.6-0.1-1.6c0-0.5,1.1-3.8,1.3-4.1
			c0-0.3,0.2-0.6,0.1-1c0.2-0.4,0.1-1,0.1-1.4c0.1-0.7,0.4-1.3,0.6-2c0.1-0.3,0.2-0.7,0.4-1c0.1-0.4,0.2-0.8,0.4-1.1
			c0.7,0.4,1.3,0.4,1.7,1.2l0.3,1.8c0,0.1,0.1,0.3,0.2,0.2c0.5-0.4,0.4-1.2,0.4-1.7c0.1-0.7-0.3-1-0.5-1.5c-0.1-0.1-0.4-0.6-0.4-0.6
			c-0.1-0.5-1.1-0.8-0.9-1.3c0.1-0.5,0.3-0.9,0.7-1.2c0.1,0,0.1,0.1,0.1,0.1l0.3-0.2l0-1.8c0.7,0,1.7,0.1,2.4,0.1
			c0.2,0.1,0.3,0.2,0.5,0.2l0.2-0.2l1.7-0.3C63.6,28.5,63.2,27.7,62.5,27.7L62.5,27.7z"/>
		<path fill="#FFFFFF" d="M64.4,28.4c0.1,0,0.1,0,0.2,0L64.4,28.4L64.4,28.4z"/>
		<path d="M46.2,34.3c0,0.3-0.1,0.4-0.3,0.5c-0.2-0.1-0.3-0.1-0.4-0.3c-0.1-0.2,0.1-0.4,0.3-0.5C45.9,34.1,46.1,34.1,46.2,34.3
			L46.2,34.3z"/>
		<path d="M44.8,34.3c0.1,0.1,0.1,0.3,0.1,0.5c-0.1,0.1-0.4,0.2-0.5,0.1c-0.1-0.1-0.3-0.3-0.1-0.4C44.4,34.3,44.6,34.1,44.8,34.3
			L44.8,34.3z"/>
		<path fill="#FFFFFF" d="M73.9,34.5C73.9,34.5,73.9,34.6,73.9,34.5"/>
		<path d="M89.8,34.9c0.1,0.2-0.1,0.4-0.3,0.5c-0.2-0.1-0.5-0.1-0.5-0.4c0-0.2,0.2-0.3,0.3-0.3C89.6,34.6,89.7,34.8,89.8,34.9
			L89.8,34.9z"/>
		<path d="M90.9,34.9c0.1,0.1,0.2,0.3,0,0.4c-0.1,0.1-0.1,0.1-0.2,0.2c-0.2,0-0.4,0-0.5-0.3c0-0.2,0.1-0.3,0.3-0.4
			C90.7,34.7,90.8,34.8,90.9,34.9L90.9,34.9z"/>
		<path d="M39.6,35.1c-0.1,0.3-0.3,0.4-0.6,0.3c-0.1-0.1-0.1-0.2-0.2-0.3c0-0.1,0.1-0.3,0.2-0.4C39.3,34.8,39.5,34.9,39.6,35.1
			L39.6,35.1z"/>
		<path d="M46.6,35.5c0,0.2-0.2,0.3-0.4,0.4c-0.2,0-0.4-0.1-0.5-0.3c0-0.2,0.1-0.4,0.3-0.4C46.3,35.1,46.5,35.2,46.6,35.5L46.6,35.5
			z"/>
		<path d="M45.4,35.3c0.1,0.1,0.1,0.2,0.1,0.3c-0.1,0.1-0.3,0.3-0.5,0.2c-0.1-0.1-0.3-0.2-0.2-0.4c0.1-0.1,0.2-0.2,0.3-0.3
			C45.2,35.1,45.2,35.2,45.4,35.3L45.4,35.3z"/>
		<path d="M94.1,35.6c0,0.2-0.2,0.3-0.3,0.4c-0.2,0.1-0.4,0-0.5-0.1c-0.1,0-0.1-0.2-0.1-0.3c0.1-0.1,0.3-0.2,0.4-0.3
			C93.9,35.3,94,35.4,94.1,35.6L94.1,35.6z"/>
		<path d="M95.4,35.8c-0.1,0.2-0.2,0.4-0.4,0.4c-0.1,0-0.4-0.1-0.3-0.3c0-0.1,0.1-0.3,0.2-0.3C95.1,35.4,95.4,35.5,95.4,35.8
			L95.4,35.8z"/>
		<path d="M41.9,36.1c0,0.3,0,0.4-0.3,0.5c-0.1,0.1-0.3,0-0.4-0.1c-0.1-0.1-0.2-0.3-0.1-0.4c0-0.2,0.2-0.1,0.4-0.2
			C41.7,35.8,41.8,35.9,41.9,36.1L41.9,36.1z"/>
		<path d="M43,36.2c0.1,0.2-0.1,0.2-0.2,0.4c-0.1,0.1-0.3,0.1-0.4,0c-0.1-0.1-0.3-0.3-0.2-0.5C42.4,35.8,42.9,36,43,36.2L43,36.2z"
			/>
		<path d="M92.9,36.1c0,0.2-0.2,0.4-0.3,0.5c-0.2,0-0.4-0.1-0.4-0.3c0-0.2,0.1-0.3,0.2-0.4C92.6,35.9,92.8,36,92.9,36.1L92.9,36.1z"
			/>
		<path d="M94.6,36.5c0,0.2,0,0.4-0.2,0.5c-0.2,0-0.4,0-0.5-0.1c-0.1-0.1-0.1-0.3-0.1-0.4c0.1-0.2,0.3-0.3,0.5-0.3
			C94.4,36.3,94.5,36.4,94.6,36.5L94.6,36.5z"/>
		<path d="M41.1,36.9c0.1,0.2-0.1,0.2-0.2,0.3c-0.1,0.1-0.3,0-0.4,0c-0.1-0.1-0.1-0.3-0.1-0.4C40.7,36.4,41.1,36.7,41.1,36.9
			L41.1,36.9z"/>
		<path d="M93.3,37.3c0.1,0,0,0.1,0,0.2c-0.5,0.3-1.3,0.3-1.7-0.1c-0.3-0.2-0.6-0.3-0.8-0.5c0.1-0.3,0.5-0.3,0.8-0.3
			C92.1,36.7,92.6,37.3,93.3,37.3L93.3,37.3z"/>
		<path d="M42.1,37.1c0,0.2-0.1,0.2-0.1,0.4c-0.1,0.1-0.3,0.1-0.4,0c-0.2-0.1-0.3-0.4-0.1-0.5C41.8,36.8,42,36.9,42.1,37.1
			L42.1,37.1z"/>
		<path d="M44,37.3c0.1,0.2,0,0.4-0.2,0.5c-0.1,0.1-0.3,0-0.4-0.1c-0.1-0.1-0.3-0.3-0.1-0.5C43.5,36.9,43.8,37,44,37.3L44,37.3z"/>
		<path d="M68.1,38.1c0,0.4-0.7-0.1-0.6,0.5c0.1,0.4,0.2,0.9,0.4,1.2c0.2,0.3,0.1,0.7,0.1,1.1c-0.2,0.3-0.5,0.5-0.8,0.7
			c-0.6-0.1-1.5,0.3-1.7-0.4c-0.1-0.3-0.3-0.6-0.3-1c0.1,0,0.1,0,0.2-0.1c0-0.1-0.2-0.2-0.1-0.4c0.7-0.1-0.3-0.7,0.3-0.8
			c0.5,0.5,1.3,0.3,1.7,0.9c0.1,0.1,0.2,0.2,0.3,0.3c-0.1-0.5-0.3-1-0.4-1.5c-0.1-0.3,0-0.5,0.2-0.7C67.6,37.5,67.9,37.9,68.1,38.1
			L68.1,38.1z"/>
		<path d="M45.8,38c0.1,0.2-0.1,0.3-0.2,0.4c-0.2,0.1-0.3-0.1-0.4-0.2c-0.1-0.2,0.1-0.3,0.2-0.4C45.6,37.8,45.7,37.9,45.8,38
			L45.8,38z"/>
		<path d="M58.7,38.2c0.3,0.8,0.2,1.7-0.3,2.4c0,0.2,0,0.4-0.2,0.4c-0.6-0.8-0.1-1.9,0.1-2.7C58.4,38.1,58.7,38,58.7,38.2L58.7,38.2
			z"/>
		<path d="M76.6,38.6c0.3,0.6,0.3,1.4,0,2l-0.2,0.2c-0.2-0.5-0.4-1-0.5-1.5c0.1-0.4,0.2-0.7,0.3-1.1C76.5,38.1,76.5,38.5,76.6,38.6
			L76.6,38.6z"/>
		<path d="M47.5,38.8c-0.1,0.3-0.5,0.3-0.7,0.5c-0.5,0.4-1.2,0.5-1.9,0.4c0.5-0.8,1.4-1.2,2.4-1C47.3,38.8,47.4,38.7,47.5,38.8
			L47.5,38.8z"/>
		<path d="M38.9,39.6c0.8,0.5,1,1.3,1.4,2.1c0.1,0.1,0.3,0.1,0.2,0.3c-0.2,0.1-0.3-0.1-0.6-0.1c-0.8-0.4-1.3-1.2-1.3-2.2
			C38.7,39.6,38.8,39.6,38.9,39.6L38.9,39.6z"/>
		<path d="M75.8,40.3c0,0.2,0,0.4-0.2,0.5c-0.2,0.1-0.4-0.1-0.5-0.3c-0.1-0.1,0.1-0.2,0.1-0.3C75.4,40,75.7,40.1,75.8,40.3
			L75.8,40.3z"/>
		<path d="M84.6,41.4c0-0.4,0.1-0.8,0.1-1.2c0.1-0.1,0.1-0.3,0.1-0.4c0.5-0.7,1.5-0.5,2.3-0.4c0.3,0.2,0.7,0.1,1,0.2
			c0.1-0.1,0.4-0.1,0.5-0.1c0.7-0.4,0.2-1.1,0.3-1.7l-0.3-0.6c-0.1-0.1-0.1-0.3-0.2-0.4c-0.1-0.1-0.2-0.4-0.3-0.6
			c-0.4-0.9-1-1.5-1.6-2.2c-1.1-1.4-2.7-2.2-4.4-2.7c-1.7-0.6-3.3,0.2-4.8,0.7c-0.5-0.1-0.7-0.5-0.8-0.9c-0.1-0.8,0.1-1.6,0.4-2.2
			c0.1-0.5,0.4-0.9,0.6-1.4c0.4-1.2,0.8-2.3,0.9-3.6c0-0.8-0.5-1.3-1.1-1.7c-0.4-0.1-0.9-0.1-1.1,0.2c-0.3,0.6-0.9,0.9-1.4,1.2
			c0,0.4,0.4,0.1,0.5,0.3c0.5,0.1,1-0.1,1.4,0.2c0,0.8-0.4,1.5-0.9,2.2c-0.7,1.1-1.5,2.1-1.9,3.3l-0.1-0.1l0.1,5.1
			c0.7,1.1,1.5,2.4,2.7,2.8c0.7,0.5,1.5,1.2,2.4,0.7c0.5-0.1,0.5,0.5,0.8,0.8c0.3,0.8-0.3,1.3-0.4,2l-0.5,1.2
			c-0.6,1.2-1.2,2.5-2.2,3.6c-0.3,0-0.5,0.3-0.8,0.4c-0.2,0.2-0.5,0.1-0.7,0.1c-0.6,0.3-1.6,0.1-2,0.7c0,0.1,0.1,0.1,0.2,0.1
			c1.3,0,2.7,0.1,4.1,0c0.2-0.1,0.3-0.2,0.3-0.4c-0.2-0.4,0.1-0.7,0.2-0.9c0.1-0.5,0.4-0.8,0.6-1.3c0.4-0.9,0.9-1.7,1.4-2.6l0.6-1.1
			c0.1-0.4,0.4-0.8,0.6-1.2c0.2-0.2,0.3-0.4,0.4-0.6c0-0.2-0.1-0.3-0.2-0.4c0.1-0.1,0.4-0.1,0.6-0.1c0.5,0.3,1.1,0.8,1.2,1.4
			l0.2,0.5l0.1,0.3l0,0.7l0.1,0.7c0.1,1-0.1,2-0.2,3.1c-0.4,1.2-1.8,1.1-2.8,1.4c-0.3,0.2-0.7,0.1-0.7,0.5c1.2,0.3,2.6,0.1,3.9,0.1
			c0.2-0.1,0.3-0.3,0.4-0.5c0-0.3,0.3-0.5,0.2-0.8c-0.2-0.3,0-0.8-0.1-1.2c0-0.1,0-0.3,0-0.4c0.2-0.6,0.1-1.3,0.3-1.9L84.6,41.4
			L84.6,41.4z"/>
		<path d="M94.9,40.6c-0.7,0.9-1.4,2-2.5,2.4c-0.1,0-0.2,0-0.2-0.1c0.7-0.8,1.1-1.9,2.2-2.2C94.5,40.6,94.7,40.5,94.9,40.6
			L94.9,40.6z"/>
		<path d="M37.8,41.6c-0.1,0.1,0,0.3-0.2,0.3c-0.2,0.1-0.4,0-0.4-0.2c-0.1-0.2,0.1-0.4,0.3-0.5C37.6,41.3,37.8,41.4,37.8,41.6
			L37.8,41.6z"/>
		<path d="M43.9,41.9c0.1,0.2-0.1,0.2-0.3,0.2c-0.9,0.3-1.8,0-2.4-0.6c0-0.1,0-0.2,0.1-0.2C42.1,41.5,43.2,41.4,43.9,41.9L43.9,41.9
			z"/>
		<path d="M39,41.6c0,0.1,0.1,0.2,0,0.3c-0.1,0.2-0.3,0.2-0.5,0.2c-0.1-0.1-0.2-0.1-0.3-0.3c0-0.2,0.2-0.3,0.4-0.4
			C38.8,41.5,38.9,41.5,39,41.6L39,41.6z"/>
		<path d="M58.6,41.7c0,0.2-0.1,0.3-0.3,0.4c-0.2,0-0.4,0-0.4-0.2c-0.1-0.1,0-0.4,0.1-0.4C58.2,41.5,58.5,41.5,58.6,41.7L58.6,41.7z
			"/>
		<path d="M95.7,41.8c0.1,0.2-0.1,0.3-0.3,0.4c-0.1,0.1-0.3,0-0.4-0.1c0-0.1-0.1-0.2-0.1-0.3c0.1-0.2,0.3-0.3,0.5-0.3
			C95.5,41.7,95.6,41.7,95.7,41.8L95.7,41.8z"/>
		<path d="M97.1,41.7c0.1,0.2,0,0.3-0.1,0.5c-0.1,0.1-0.3,0.2-0.4,0.1c-0.1-0.1-0.3-0.2-0.3-0.4c0-0.2,0.2-0.3,0.3-0.4
			C96.8,41.5,96.9,41.7,97.1,41.7L97.1,41.7z"/>
		<path d="M37,42.3c0,0.1-0.1,0.2-0.1,0.4c-0.1,0-0.2,0.1-0.3,0.1c-0.1-0.1-0.3-0.2-0.3-0.3c0-0.2,0.2-0.4,0.4-0.4
			C36.7,42,36.9,42.1,37,42.3L37,42.3z"/>
		<path d="M81,42.3c0,0.1,0,0.2,0,0.3c-0.1,0.2-0.3,0.3-0.5,0.2c-0.1-0.1-0.3-0.3-0.2-0.4C80.4,42.1,80.8,42,81,42.3L81,42.3z"/>
		<path d="M40.3,42.6c0,0.1-0.1,0.3-0.3,0.3c-0.2,0-0.3-0.1-0.4-0.2c0-0.2,0-0.4,0.2-0.5C40.1,42.2,40.3,42.4,40.3,42.6L40.3,42.6z"
			/>
		<path d="M38.3,42.7c0.1,0.2-0.1,0.4-0.2,0.5c-0.3,0.1-0.5-0.1-0.6-0.3c0-0.2,0.2-0.4,0.4-0.5C38.1,42.4,38.2,42.6,38.3,42.7
			L38.3,42.7z"/>
		<path d="M82.3,42.6c0,0.2,0,0.4-0.2,0.5c-0.3,0.1-0.5-0.1-0.6-0.3c0.1-0.2,0.1-0.4,0.4-0.4C82.1,42.4,82.2,42.5,82.3,42.6
			L82.3,42.6z"/>
		<path d="M39.3,42.7c0.1,0.1-0.1,0.2-0.1,0.3c-0.1,0-0.2,0.1-0.3,0.1c-0.1-0.1-0.3-0.1-0.3-0.3c0-0.2,0.1-0.3,0.3-0.4
			C39.1,42.4,39.2,42.6,39.3,42.7L39.3,42.7z"/>
		<path d="M94.5,42.9c-0.1,0.2-0.2,0.3-0.4,0.3c-0.2,0-0.3-0.1-0.4-0.2c-0.1-0.1-0.1-0.3,0-0.4C94,42.3,94.5,42.5,94.5,42.9
			L94.5,42.9z"/>
		<path d="M96.1,43c-0.1,0.2-0.3,0.3-0.5,0.4c-0.2-0.1-0.4-0.2-0.3-0.5c0.1-0.1,0.1-0.2,0.3-0.2C95.9,42.6,96.1,42.8,96.1,43
			L96.1,43z"/>
		<path d="M86.2,43.1c0.1,0.3-0.1,0.4-0.3,0.5c-0.1,0-0.3-0.1-0.4-0.2c0-0.2,0.1-0.4,0.3-0.5C86,42.9,86.1,43,86.2,43.1L86.2,43.1z"
			/>
		<path d="M80.4,43.4c0.1,0,0.1,0.2,0,0.3c-0.1,0.1-0.3,0.3-0.5,0.2c-0.1-0.1-0.3-0.2-0.2-0.4C79.9,43.2,80.3,43.1,80.4,43.4
			L80.4,43.4z"/>
		<path d="M81.6,43.5c0,0.2,0,0.3-0.2,0.3c-0.1,0.1-0.3,0-0.5-0.1c0-0.1-0.1-0.2,0-0.3c0.1-0.1,0.2-0.1,0.3-0.2
			C81.4,43.4,81.6,43.4,81.6,43.5L81.6,43.5z"/>
		<path d="M46.2,43.5c0.1,0.1,0,0.3,0,0.4c-0.1,0.1-0.3,0.2-0.5,0.1c-0.2-0.1-0.2-0.4-0.1-0.5c0.1,0,0.1-0.2,0.3-0.2
			C45.9,43.4,46,43.4,46.2,43.5L46.2,43.5z"/>
		<path d="M88.4,43.6c0,0.2-0.2,0.3-0.3,0.3c-0.3,0.1-0.4-0.1-0.5-0.3c0-0.1,0.1-0.2,0.2-0.3C88.1,43.2,88.3,43.5,88.4,43.6
			L88.4,43.6z"/>
		<path d="M87.3,43.6c0.1,0.2-0.1,0.3-0.2,0.4c-0.1,0.1-0.3,0-0.5-0.1c-0.1-0.1-0.1-0.2-0.1-0.3c0.1-0.1,0.2-0.2,0.3-0.3
			C87,43.4,87.2,43.5,87.3,43.6L87.3,43.6z"/>
		<path d="M96.7,43.9c0,0.3-0.3,0.1-0.5,0.2c-0.9,0.5-2,0.1-2.8-0.2c0.1-0.3,0.4-0.2,0.5-0.3C94.8,43.1,95.8,43.8,96.7,43.9
			L96.7,43.9L96.7,43.9z"/>
		<path d="M39.5,43.6l-0.1,0.1c-0.8,0.5-1.8,0.8-2.7,0.5l-0.1-0.1C37.4,43.6,38.5,43.4,39.5,43.6L39.5,43.6L39.5,43.6z"/>
		<path d="M90.6,43.8c0,0.2-0.1,0.3-0.2,0.4c-0.2,0.1-0.5,0-0.5-0.2c-0.1-0.2,0.1-0.3,0.3-0.4C90.2,43.5,90.5,43.6,90.6,43.8
			L90.6,43.8z"/>
		<path d="M43.3,43.9c-0.1,0.2,0,0.3-0.3,0.4c-0.2,0.1-0.5-0.1-0.5-0.3c-0.1-0.2,0.1-0.3,0.2-0.4C43,43.5,43.2,43.7,43.3,43.9
			L43.3,43.9z"/>
		<path d="M41.8,44c0.1,0.1-0.1,0.2-0.1,0.3c-0.1,0.1-0.3,0.1-0.4,0.1c-0.1-0.1-0.3-0.3-0.2-0.5c0.1-0.1,0.2-0.2,0.3-0.2
			C41.6,43.7,41.8,43.8,41.8,44L41.8,44z"/>
		<path d="M92,44.4c0,0.2-0.2,0.3-0.3,0.4c-0.2,0-0.3-0.1-0.4-0.2c-0.1-0.1,0-0.3,0.1-0.4c0-0.1,0.2-0.1,0.3-0.1
			C91.8,44.1,92,44.3,92,44.4L92,44.4z"/>
		<path d="M40.2,44.2c0.1,0.2-0.1,0.2-0.1,0.4c-0.1,0.4-0.3,0.6-0.5,0.9c-0.4,0.5-1,0.5-1.5,0.6l-0.1-0.2
			C38.7,45.2,39.3,44.6,40.2,44.2L40.2,44.2L40.2,44.2z"/>
		<path d="M91,44.7c0,0.3-0.2,0.3-0.3,0.4c-0.2,0-0.3-0.1-0.4-0.3c-0.1-0.2,0.1-0.3,0.3-0.4C90.7,44.4,90.9,44.5,91,44.7L91,44.7z"
			/>
		<path d="M42.6,44.7c0,0,0,0.1,0.1,0.1c0,0.2-0.2,0.3-0.3,0.4c-0.2,0-0.3-0.1-0.5-0.2c-0.1-0.2,0-0.4,0.2-0.5
			C42.3,44.5,42.6,44.5,42.6,44.7L42.6,44.7z"/>
		<path d="M94.8,45.3c0.2,0,0.2-0.3,0.5-0.3c0.2,0,0.4,0.1,0.5,0.2c0.1,0.3-0.1,0.4-0.3,0.5c-0.1,0.1-0.5-0.1-0.4,0.1
			c0.1,0.1,0.3,0.3,0.3,0.4c0,0.1-0.2,0.1-0.3,0c-0.6-0.3-1.3-0.7-1.5-1.3c-0.1-0.2-0.5-0.3-0.3-0.5C94,44.4,94.5,44.9,94.8,45.3
			L94.8,45.3z"/>
		<path d="M96.8,44.7c0.1,0.1,0.1,0.3,0,0.4c-0.1,0.2-0.4,0.1-0.6,0.1C96.1,45.1,96,45,96,44.8c0.1-0.1,0.2-0.2,0.3-0.3
			C96.5,44.5,96.7,44.6,96.8,44.7L96.8,44.7z"/>
		<path d="M89.2,45.8c0.2,0.2,0.4,0.6,0.5,0.8c0,0.1-0.1,0-0.2,0c-0.7-0.4-1.6-0.8-1.9-1.7c-0.1-0.1-0.2-0.2-0.2-0.3
			c0.5-0.1,1.1,0.3,1.4,0.6C89,45.5,89.2,45.6,89.2,45.8L89.2,45.8z"/>
		<path d="M41.5,45c0.1,0.2-0.1,0.3-0.2,0.4c-0.2,0-0.4,0-0.5-0.2c-0.1-0.2,0.1-0.4,0.3-0.5C41.3,44.7,41.4,44.9,41.5,45L41.5,45z"
			/>
		<path d="M91.9,45.5c0,0.1-0.1,0.2-0.2,0.3c-0.2,0-0.3,0.1-0.5-0.1c0-0.1-0.1-0.3,0-0.4C91.4,45,91.7,45.3,91.9,45.5L91.9,45.5z"/>
		<path d="M97.1,45.8c0.1,0.3-0.1,0.4-0.3,0.5c-0.2,0.1-0.4-0.1-0.5-0.2c-0.1-0.1,0-0.3,0-0.4c0.1-0.1,0.3-0.2,0.5-0.1
			C96.9,45.6,97,45.7,97.1,45.8L97.1,45.8z"/>
		<path d="M82.6,48.7c0,0.3-0.5,0.2-0.6,0.4c-0.6,0.3-1.4,0.3-2.2,0.3v-0.1C80.5,48.6,81.6,48.4,82.6,48.7L82.6,48.7z"/>
		<path d="M52.1,49.6c0,0.2-0.1,0.3-0.3,0.4c-0.1,0-0.3-0.1-0.4-0.2c-0.1-0.3,0.1-0.4,0.3-0.5C51.9,49.3,52.1,49.4,52.1,49.6
			L52.1,49.6z"/>
		<path d="M82.2,49.8c0,0.2-0.1,0.4-0.3,0.5c-0.2,0-0.3-0.1-0.5-0.1c-0.1-0.1,0-0.2-0.1-0.3C81.6,49.4,82.1,49.4,82.2,49.8
			L82.2,49.8z"/>
		<path d="M86.4,49.9c-0.5,0.3-1.1,0.7-1.8,0.7l-1.1,0l-0.1-0.1c0.7-0.8,1.9-0.8,3-0.8V49.9L86.4,49.9z"/>
		<path d="M46.4,50.4c0,0.2-0.1,0.3-0.3,0.4c-0.2,0-0.4,0-0.4-0.2c-0.1-0.2,0-0.4,0.2-0.5C46.1,50,46.3,50.2,46.4,50.4L46.4,50.4z"
			/>
		<path d="M47.4,50.6c0.1,0.1,0,0.2-0.1,0.3c-0.1,0.1-0.3,0.1-0.4,0c-0.1-0.1-0.2-0.2-0.1-0.4c0.1-0.1,0.2-0.1,0.3-0.2
			C47.2,50.4,47.4,50.5,47.4,50.6L47.4,50.6z"/>
		<path d="M39.4,52.7c-0.2,0.3-0.5-0.1-0.8-0.2c-0.7-0.4-0.7-1.2-1.4-1.7c0.1-0.3,0.3,0,0.4,0c0.1,0.1,0.3,0.2,0.4,0.2
			C38.8,51.4,39,52.1,39.4,52.7L39.4,52.7z"/>
		<path d="M100.3,44.6c-0.3-0.6-0.9-0.9-1.6-0.9c-0.5,0-0.9,0.4-1.2,0.9c-0.1,0.5,0,0.9,0.4,1.2c0.1,0.1,0.3,0,0.4-0.1
			c0.1-0.3-0.2-0.3-0.2-0.5c-0.1-0.3,0-0.5,0.2-0.7c0.2-0.2,0.6-0.1,0.8-0.1c0.3,0.2,0.5,0.3,0.6,0.6c0.1,0.4,0.1,0.8,0,1.1
			c-0.2,0.5-0.8,0.9-1.3,1.1c-1.7,0.3-20.8,0.2-20.8,0.2c-2.2,0.2-4.8-0.4-6.7,0.8c-0.9,0.4-1.3,1.4-1.5,2.3
			c-0.6,0.5-1.2,1.1-1.6,1.7l-0.1-0.1c0.1-0.5,0.3-0.9,0.4-1.5c0.3-0.4,0.3-1,0.5-1.5c0.8-1.3,1.5-2.6,2.8-3.5
			c0.5-0.7,1.4-0.6,2.2-0.6c0.9,0.4,1.9,0.5,2.9,0.4c0,0,0.1-0.1,0.1-0.1c-0.3-0.3-0.8-0.4-1.1-0.7c-0.8-0.4-1.6,0.1-2.5,0.1
			c0,0-0.1-0.1-0.1-0.1c0.8-0.6,1.7-1,2.6-1.4c0.7-0.4,1.5-0.6,2.3-0.9c0.3,0,0.6-0.3,0.9-0.1l1.1-0.3c0,0,0.1,0.1,0.2,0.1
			c0.9-0.3,2.1,0,3.2,0l0.1,0.1l1,0.3c0.4,0,0.5,0.5,0.9,0.5c0.2-0.3-0.2-0.4-0.3-0.6c0.5-0.1,1,0,1.4,0.2l-0.2,0.2
			c-0.1,0.2,0.1,0.4,0.3,0.5c0.1,0,0.3-0.1,0.4-0.1c0.3-0.2,0-0.4,0.1-0.5c1.5,0.3,3,0.7,4.5,1.3c0.4,0.1,0.8,0.4,1.2,0.4
			c-0.4-0.4-1-0.6-1.6-0.8c-0.4-0.2-0.9-0.2-1.1-0.5c0.1-0.1,0.2-0.1,0.3-0.1c0.7-0.1,1.3-0.6,1.8-1.2c0-0.1,0.3-0.1,0.3-0.3
			c-0.2-0.2-0.5,0.1-0.8,0c-0.9,0.2-1.3,1.2-2.1,1.4c-1.1-0.3-2.2-0.5-3.2-0.8c-0.5-0.1-1.1-0.1-1.6-0.3l-1.2-0.1h-2.1
			c0,0-0.1-0.1-0.1-0.1c0.8-0.2,1.4-0.6,2.2-0.8l5.6-2.6c0.6-0.5,1.1-1.1,1.6-1.7c0-0.2-0.1-0.3-0.2-0.4c-0.1-0.1-0.3,0-0.4,0.1
			c-0.3,0.2,0,0.4,0,0.7c-0.3,0.3-0.6,0.6-1,0.8c-0.1,0-5.8,2.6-5.8,2.6c-0.8,0.4-1.7,0.8-2.5,0.9l-1.2,0.2
			c-0.1,0.3-0.3,0.4-0.5,0.5c-0.3,0.1-0.6,0.3-1,0.3c-2.7,1.1-5.5,2.2-7.7,4.3c0.1-0.3,0.2-0.6,0.2-0.9c0-0.3,0-0.7-0.2-0.9
			c0-0.1-0.2-0.5-0.2-0.6l-0.3,0.2c-0.2,0.5-0.4,1.3-0.2,1.8c0.1,0.4,0.4,0.8,0.1,1.2c-1,1.2-1.6,2.7-2.2,4.1
			c-0.3,0-0.4-0.3-0.5-0.5c0.7-0.9,1.3-1.9,1.5-3.1c0.1-0.1,0-0.4,0.2-0.5c0-0.3,0.2-0.7,0-0.9c0.1-0.5-0.6-0.9-0.1-1.2l-0.4,0.2
			c-0.9,1.2,0.5,2.9-0.6,4.1V49c-0.3,0.4-0.4,0.8-0.8,1c-0.5-0.2-0.7-0.8-1-1.2c-0.5-0.4-0.5-1.3-0.2-2c0.2-0.6-0.1-1.1-0.2-1.7
			L65.2,45c-0.5,0.7-0.7,1.7-0.3,2.5c0.2,0.4,0.2,0.9,0.5,1.2c0.2,0.6,0.6,1,0.9,1.6c0.1,0.2-0.1,0.3-0.2,0.4
			c-0.2-0.1-0.2-0.5-0.4-0.6c-0.7-1.5-1.6-2.7-2.7-3.9c0-0.2-0.2-0.4-0.1-0.6c0.4-0.4,0.5-1.1,0.3-1.6c0-0.1-0.2-0.2-0.1-0.3
			l-0.3-0.3c0,0.7-0.4,1.4-0.2,2.2v0c-2.2-1.6-4.5-3.1-7-4.2l-0.2,0.5c0.6,0.2,2.2,1.1,2.2,1.1c0.7,0.3,1.4,0.7,2.1,1.1
			c2.8,1.6,4.7,4.2,6,7.1c0,0.2,0.2,0.5,0.1,0.7c-0.4-0.7-1.1-1.1-1.6-1.6c-0.1-1-0.7-1.9-1.6-2.3c-0.3-0.5-1-0.5-1.5-0.7l-7.6,0
			c-6.2-0.1-11.8,0.2-18,0.1c-0.9-0.1-1.9-0.4-2.2-1.3c-0.2-0.3-0.2-0.9,0-1.2c0.2-0.4,0.6-0.5,1.1-0.6c0.3,0,0.6,0.4,0.7,0.6
			c0,0.3-0.2,0.5-0.3,0.8c0,0.1,0.1,0.3,0.3,0.2c0.3-0.1,0.5-0.4,0.5-0.7c0-0.1,0.1-0.4-0.1-0.5c-0.1-0.4-0.6-0.8-1-0.9
			c-0.5,0-1.1,0.1-1.4,0.5c-0.5,0.4-0.5,1.2-0.3,1.8c0.3,0.9,1.3,1.6,2.3,1.7L55.4,48c2,0.1,4.2-0.2,6.2,0.2
			c0.7,0.2,1.5,0.8,1.7,1.6c0,0-0.1,0-0.1,0c-1.7-1.1-3.8-1.5-5.9-1.2c-0.8,0-1.6,0.3-2.3,0.5c-0.4,0.1-0.8-0.1-1-0.3
			c-0.8-0.7-2.1-0.6-3-0.4c0,0.1,0,0.1,0,0.1c1-0.1,1.6,0.8,2.5,0.9c0.2,0,0.4-0.2,0.6,0c-1,0.5-1.9,1-2.9,1.3
			c-0.3-0.1-0.5-0.4-0.7-0.5c-0.4-0.4-1.1-0.3-1.7-0.3c-0.2,0-0.4-0.1-0.5,0c0.2,0.3,0.5,0.5,0.9,0.7c0.5,0.2,1.1,0,1.6,0.3
			c-0.1,0.1-0.3,0.2-0.4,0.3c-1,0.4-1.8,1.3-2.9,1.2c-1.1,0.1-2.3-0.2-3.1-1c-0.3-0.8-1.2-1.3-2.1-1.2c-0.1,0-0.1,0-0.1,0.1
			c0.5,0.3,0.8,0.8,1.3,1.1c0.3,0.4,0.9,0,1.1,0.4c0.4,0.3,0.9,0.5,1.4,0.6c0.3,0.1,0.7,0.2,1.1,0.3l-0.1,0.1
			c-1.9,0.6-4.1,0.7-6.2,0.6c-0.6,0-1.2-0.2-1.9-0.2c0.1,0.1,0.3,0.2,0.5,0.3c-0.2,0.1-0.4,0.1-0.6,0.2c-0.3,0.1-0.5,0.1-0.8,0.2
			c-0.3,0-0.6,0.1-0.9,0.2c-0.4,0.4-0.8,0.8-1.2,1c0,0.1,0,0.2,0.1,0.2c0.4-0.2,0.9,0,1.3-0.2c0.7-0.1,1.1-0.8,1.6-1.1
			c0.6-0.5,1.4-0.4,2.1-0.3c0.4,0.1,0,0.3,0.1,0.5c0.2,0.1,0.3,0.3,0.5,0.3c0,0,0.1-0.1,0.1-0.1c0.1-0.2,0.1-0.4,0-0.5
			c0.3-0.2,0.7,0,1-0.1c0.8,0,1.6-0.2,2.4-0.2c0.1,0,0.3-0.1,0.4,0c-0.1,0.2-0.3,0.2-0.2,0.4c0,0.2,0.3,0.3,0.4,0.3
			c0.2-0.1,0.4-0.2,0.3-0.5c0-0.1-0.2-0.2-0.3-0.2c0.4-0.2,0.9-0.3,1.4-0.5c0.3-0.1,0.6-0.2,0.9-0.3c0.3,0,0.5-0.3,0.8-0.2
			c-0.1,0.4-0.3,0.7-0.4,1c-0.3,1.1-0.6,2.6,0,3.7c0.1,0,0.1,0,0.1,0c-0.4-1.1-0.2-2.4,0.2-3.5c0.3-1.8,2.1-2.3,3.4-3l0.1,0.1
			c-0.4,0.9-0.9,1.8-0.8,2.9c0,0.2-0.1,0.4,0,0.5c0.4-0.2,0.6-0.6,0.8-1c0.1-0.9-0.4-2.1,0.6-2.8c1.7-0.7,3.3-1.6,5.3-1.6
			c0.1,0.1,0.2,0,0.2,0.1c-0.4,0.5-1,0.9-1.2,1.5c-0.7,0.9-0.6,2.5-0.4,3.6c0.2,0.7-0.4,1-0.6,1.5c-0.1,0.2-0.2,0.5-0.3,0.7l0.4,0
			c0.4-0.4,0.7-0.8,0.7-1.4c0,0.2,0.2,0.4,0.4,0.4c0.1-0.2-0.1-0.4-0.1-0.6c0.3-0.2,0.5,0.2,0.8,0.3c0.4,0.1,0.8,0.3,1.3,0.3
			l0.1-0.1c-0.5-0.7-1.4-0.8-2.2-0.9c-0.4-0.7-0.4-1.6-0.4-2.4c0.1-0.4,0.2-0.9,0.4-1.3c0.1-0.3,0.4-0.6,0.6-0.8
			c0.4-0.4,0.9-0.6,1.3-0.7H59c0,0,0,0.1,0,0.1c-0.6,0.4-0.6,1.1-1,1.6c-0.4,0.5-0.5,1.2-0.2,1.8c0.1,0.3,0.1,0.7,0.4,0.9
			c0.3-0.4,0.3-0.9,0.4-1.3c-0.1-0.7-0.5-1.3-0.1-2c0.2-0.5,0.6-0.7,1.1-0.9c1.1-0.1,2.2,0.5,3.2,0.9c0.2,0.1,0.6,0.3,0.6,0.6
			c0,0.6-0.3,1.1-0.8,1.4c-0.6,0.3-1.4,0.4-1.9,0c-0.3-0.3-0.4-0.9-0.3-1.3c0.2-0.3,0.5-0.5,0.9-0.3c0.2,0.1,0.4,0.3,0.7,0.2
			c0.1-0.1,0.1-0.2,0.1-0.3c-0.2-0.1-0.3-0.4-0.6-0.5c-0.4-0.1-0.9,0-1.1,0.2c-0.4,0.4-0.6,0.9-0.5,1.5c0.1,0.7,0.6,1.2,1.3,1.3
			c1,0.2,2-0.1,2.6-0.9c0.3-0.3,0.3-0.6,0.5-0.9c1,0.6,1.8,1.7,2.2,2.8c0,0.4,0.1,0.7,0,1.1l0.7,0.1c-0.1-0.2,0-0.4,0.1-0.5
			c0.3-1.4,1.1-2.5,2.2-3.5c0.4-0.2,0.3,0.3,0.4,0.4c0.3,0.8,1,1.4,1.8,1.6c0.9,0.1,1.7-0.1,2.3-0.7c0.3-0.5,0.6-1.2,0.1-1.8
			c-0.3-0.4-0.7-0.5-1.1-0.5c-0.5,0-0.9,0.4-1.1,0.8c0,0.2,0,0.4,0.1,0.4c0.1,0,0.3,0,0.3-0.1c0-0.3,0.3-0.5,0.6-0.6
			c0.2-0.1,0.5,0,0.7,0.1c0.2,0.2,0.3,0.5,0.3,0.8c0,0.4-0.3,0.8-0.7,1c-0.6,0.3-1.5,0.2-2-0.2c-0.3-0.3-0.4-0.6-0.6-0.9
			c0-0.3-0.2-0.6,0-1c0.9-0.5,1.9-0.9,3-1.1c0.4,0.1,0.8,0.4,1.1,0.7c1,1-0.2,2.4,0.5,3.5c0.3,0,0.3-0.4,0.4-0.6
			c0.3-0.8-0.1-1.6-0.3-2.3c-0.3-0.5-0.4-0.9-0.8-1.2c0.1,0,0.1,0,0.3,0c0.4,0.3,0.9,0.6,1.3,1.1c0.6,1,0.9,2.2,0.8,3.5
			c-0.2,0.6-0.8,0.9-1.4,1.2c-0.2,0.2-0.5,0.4-0.6,0.7c0.3,0.1,0.6,0,0.9-0.1c0.4-0.1,0.6-0.7,0.9-0.9c0,0,0,0.1,0,0.1
			c0,0.2-0.1,0.5,0.1,0.6c0.1-0.3,0.1-0.7,0.2-1.1c0.3,0.3,0.3,0.7,0.4,1.1c0.2,0.4,0.5,0.9,1,0.9c0.1-0.2,0-0.4-0.1-0.5
			c-0.1-0.5-0.5-0.8-0.8-1.2c-0.7-1-0.4-2.6-1-3.7c-0.2-0.6-0.6-1.1-1.1-1.6l0.1-0.1c1,0,1.9,0.3,2.8,0.5c1.1,0.6,2.8,0.4,3.4,1.9
			c0.2,0.8,0.6,1.6,1.2,2.3l0.1,0c0.1-0.2,0.1-0.6,0-0.8c-0.1-1.1-1-1.3-1.5-2.2l0.1-0.1c0.5,0.1,1,0.3,1.5,0.5
			c1.7,0.5,2.8,2.1,3.1,3.8c0,1.3-0.3,2.5-0.8,3.6c-0.1,0.2-0.4,0.4-0.2,0.5c0.2-0.2,0.3-0.4,0.4-0.6c0.7-1.2,1-2.8,0.7-4.2
			c0-0.3-0.3-0.5-0.2-0.8c0.1,0.1,0.2,0.1,0.4,0.2c0.1-0.1,0.3-0.1,0.4-0.2c0-0.1,0.1-0.3,0-0.4C86.3,53,86,53,85.8,53.1
			c-0.1,0.1-0.2,0.3-0.3,0.5c-0.2-0.4-0.4-0.8-0.8-1.1l0-0.1c0.9,0.3,1.8,0.8,2.8,1c0.2,0.1,0.4,0.2,0.7,0.2
			c0.8,0.3,1.7,0.4,2.6,0.7c0.6-0.1,1.1,0.2,1.8,0.1v0l0,0c-0.2-0.3-0.7,0-1-0.2c-1.4-0.1-2.8-0.5-4.1-1c0-0.1,0.1,0,0.2,0
			c0.2-0.1,0.4-0.3,0.3-0.5c-0.1-0.1-0.3-0.2-0.5-0.2c-0.1,0.1-0.3,0.2-0.3,0.4c0,0.2,0.2,0.4,0.3,0.4c0,0-0.1,0-0.2,0
			c-0.6-0.3-1.3-0.6-1.9-0.9c-0.2,0-0.4-0.2-0.6-0.3c-0.5-0.2-1-0.5-1.4-0.7c-1.3-0.7-2.8-1.1-4.2-1.6c-0.3-0.1-0.6-0.2-0.9-0.3
			c-0.5-0.1-1-0.3-1.6-0.4c-1.8-0.4-4.2-0.5-5.7,0.5c-0.3-0.1-0.4,0.3-0.5,0.1c0.4-1.2,1.7-1.5,2.9-1.6c8.4-0.1,16.2-0.1,24.5-0.3
			c1,0,1.9-0.3,2.4-1.2C100.5,46,100.6,45.1,100.3,44.6L100.3,44.6z M67.1,52.3c-0.1,0.3-0.3,0.5-0.2,0.7l-0.1,0
			c0.1-0.3-0.3-0.5-0.2-0.8c-0.2-0.3-0.2-0.6-0.3-0.8c-0.2-0.3,0.2-0.5,0.3-0.7c0.3,0.1,0.4,0.4,0.6,0.7
			C67.4,51.7,67.1,52,67.1,52.3L67.1,52.3z"/>
		<path d="M89.8,51c0,0.1,0.1,0.1,0.1,0.2c-0.7,0.7-1.8,0.8-2.8,0.9c-0.1,0-0.2,0.1-0.3,0.1c-0.1,0-0.1-0.1,0-0.1
			C87.5,51.2,88.7,50.8,89.8,51L89.8,51z"/>
		<path d="M86.4,51.3c0.1,0.3-0.1,0.5-0.3,0.6c-0.2,0-0.4-0.2-0.5-0.3c-0.1-0.2,0.1-0.3,0.1-0.4C85.9,51.1,86.3,51.1,86.4,51.3
			L86.4,51.3z"/>
		<path d="M46.7,51.4c0,0.1,0,0.3-0.1,0.4c-0.1,0.1-0.3,0.1-0.4,0.1c-0.1,0-0.2-0.2-0.3-0.3c0-0.2,0.1-0.3,0.3-0.4
			C46.4,51.2,46.6,51.2,46.7,51.4L46.7,51.4z"/>
		<path d="M43,52.8v0.1c-0.5,0.1-1,0-1.4-0.3c-0.3-0.4-0.6-0.8-1.1-1.1c0-0.1-0.1-0.1,0-0.2C41.5,51.3,42.2,52.2,43,52.8L43,52.8z"
			/>
		<path d="M93,51.4c-0.5,0.7-0.9,1.6-1.8,1.9c-0.1,0-0.3,0.2-0.4,0.1c0.3-0.8,1-1.7,1.9-2C92.8,51.3,92.9,51.3,93,51.4L93,51.4z"/>
		<path d="M47.9,51.6c0,0.2-0.1,0.3-0.3,0.4c-0.2,0-0.3-0.1-0.4-0.2c-0.1-0.2,0.1-0.3,0.2-0.4C47.6,51.3,47.8,51.5,47.9,51.6
			L47.9,51.6z"/>
		<path d="M95.6,51.7c-0.2,0.3-0.1,0.7-0.3,1c-0.4,0.5-0.8,1-1.4,1.1c-0.1-0.2,0.1-0.4,0.3-0.6c0.3-0.6,0.7-1.3,1.4-1.6L95.6,51.7
			L95.6,51.7z"/>
		<path d="M36.5,51.9c0.1,0.1,0.1,0.3,0,0.5c-0.1,0.1-0.3,0.1-0.5,0.1c-0.2-0.1-0.3-0.3-0.2-0.5C36,51.8,36.3,51.7,36.5,51.9
			L36.5,51.9z"/>
		<path d="M35.3,52.2c0,0.1,0.1,0.2,0.1,0.3c-0.1,0.1-0.2,0.2-0.3,0.3c-0.2,0-0.4-0.1-0.5-0.3c0-0.2,0-0.4,0.2-0.4
			C35,51.9,35.2,52,35.3,52.2L35.3,52.2z"/>
		<path d="M37.8,52.3c0,0.2,0.1,0.5-0.2,0.5c-0.3,0.1-0.5-0.1-0.6-0.3c0-0.2,0.1-0.3,0.3-0.4C37.4,52.1,37.6,52.1,37.8,52.3
			L37.8,52.3z"/>
		<path d="M41.2,52.6c0,0.1,0,0.4-0.1,0.4c-0.1,0.1-0.3,0.1-0.4,0c0-0.1-0.3-0.2-0.1-0.4c0.1-0.1,0.2-0.2,0.3-0.2
			C40.9,52.5,41.1,52.4,41.2,52.6L41.2,52.6z"/>
		<path d="M97.6,52.7c-0.1,0.1-0.1,0.3-0.3,0.3c-0.2,0-0.4,0-0.5-0.2c-0.1-0.2,0.1-0.4,0.3-0.4C97.3,52.4,97.6,52.5,97.6,52.7
			L97.6,52.7z"/>
		<path d="M93.8,52.8c0,0.2-0.2,0.3-0.3,0.4c-0.3,0.1-0.5-0.1-0.6-0.3c0-0.2,0.2-0.3,0.4-0.4C93.5,52.5,93.6,52.6,93.8,52.8
			L93.8,52.8z"/>
		<path d="M96.4,52.8c0,0.1-0.1,0.3-0.2,0.4c-0.2,0.1-0.4,0-0.5-0.1c-0.2-0.2,0-0.3,0.1-0.4C95.9,52.5,96.3,52.5,96.4,52.8
			L96.4,52.8z"/>
		<path d="M35.9,53.2c0,0.2,0,0.4-0.3,0.5c-0.2,0-0.4-0.1-0.5-0.3c0-0.2,0-0.4,0.2-0.4C35.6,52.9,35.8,53,35.9,53.2L35.9,53.2z"/>
		<path d="M92.7,53.4c0.1,0.2-0.1,0.4-0.3,0.5c-0.2,0-0.3,0-0.4-0.1c-0.1-0.1-0.2-0.3,0-0.4C92.2,53,92.6,53.2,92.7,53.4L92.7,53.4z
			"/>
		<path d="M47.2,53.6c0.1,0.2-0.2,0.3-0.2,0.4c-0.1,0-0.3,0.1-0.3,0c-0.1-0.1-0.2-0.3-0.2-0.4c0.1-0.1,0.1-0.2,0.3-0.2
			C47,53.3,47.1,53.5,47.2,53.6L47.2,53.6z"/>
		<path d="M97.2,53.8c0,0.1-0.1,0.2-0.1,0.3c-0.1,0.1-0.3,0.1-0.5,0.1c-0.2-0.1-0.2-0.3-0.2-0.5c0.1-0.1,0.1-0.2,0.3-0.2
			C96.9,53.5,97.2,53.6,97.2,53.8L97.2,53.8z"/>
		<path d="M95.9,53.8c0.1,0.3-0.1,0.4-0.3,0.4c-0.1,0-0.2,0-0.2,0.1c0.5,0.3,0.9,0.7,1.3,1.1v0.2c-0.8,0-1.5-0.2-2.1-0.8
			c-0.1-0.1-0.4-0.1-0.6-0.3c0.3-0.3,0.8-0.2,1.1-0.2c0.3-0.3-0.3-0.5,0-0.8c0.1,0,0.2-0.1,0.4-0.1C95.8,53.6,95.8,53.7,95.9,53.8
			L95.9,53.8z"/>
		<path d="M87.4,53.9c0,0.1-0.1,0.2-0.1,0.3c-0.1,0.1-0.3,0.1-0.5,0.1c-0.1-0.1-0.3-0.3-0.2-0.5C86.8,53.5,87.3,53.5,87.4,53.9
			L87.4,53.9z"/>
		<path d="M40.7,54.6c-0.1,0.2-0.1,0.3-0.4,0.3c-0.2,0-0.3-0.1-0.4-0.3c0-0.1,0.1-0.2,0.1-0.3C40.3,54.1,40.7,54.3,40.7,54.6
			L40.7,54.6z"/>
		<path d="M42.4,54.3c0,0.3-0.3,0.5-0.4,0.8c-0.3,0.7-0.9,1.3-1.7,1.4c-0.1-0.2,0.3-0.4,0.4-0.6c0.3-0.7,1-1.1,1.6-1.5H42.4
			L42.4,54.3z"/>
		<path d="M86.9,54.6c0,0.2-0.2,0.4-0.4,0.5c-0.2,0.1-0.3-0.1-0.4-0.2c-0.2-0.2-0.1-0.3,0-0.5C86.4,54.2,86.7,54.4,86.9,54.6
			L86.9,54.6z"/>
		<path d="M88.2,54.8c0,0.2-0.2,0.4-0.4,0.5c0-0.1-0.1,0-0.2,0c-0.1-0.1-0.3-0.2-0.3-0.4c0.1-0.1,0.1-0.3,0.3-0.3
			C87.8,54.5,88.1,54.5,88.2,54.8L88.2,54.8z"/>
		<path d="M45.6,54.7c0,0.2-0.1,0.4-0.3,0.4c-0.2,0-0.3-0.1-0.4-0.3c0-0.2,0.1-0.3,0.3-0.4C45.4,54.4,45.4,54.6,45.6,54.7L45.6,54.7
			z"/>
		<path d="M47,54.8c-0.1,0.2-0.2,0.3-0.4,0.4c-0.1,0-0.3-0.1-0.4-0.3c0-0.2,0.1-0.3,0.3-0.4C46.8,54.5,47,54.6,47,54.8L47,54.8z"/>
		<path d="M92.7,56.3c0.1,0.1,0.3,0.2,0.2,0.3c-0.3,0.1-0.6-0.2-0.9-0.3c-0.5-0.5-0.9-1.1-1.1-1.7c0.2-0.2,0.4,0,0.6,0.1
			C92,55.2,92.4,55.7,92.7,56.3L92.7,56.3z"/>
		<path d="M93.4,54.8c0.1,0.1,0,0.3,0,0.5c-0.1,0.2-0.4,0.2-0.6,0.1c-0.1-0.1-0.3-0.3-0.2-0.5c0.1-0.2,0.3-0.2,0.4-0.3
			C93.2,54.6,93.3,54.8,93.4,54.8L93.4,54.8z"/>
		<path d="M49,55.4c0,0.2,0.1,0.4-0.1,0.5c-0.2,0-0.4,0-0.5-0.3c-0.1-0.3,0.1-0.3,0.3-0.4C48.7,55.2,48.8,55.3,49,55.4L49,55.4z"/>
		<path d="M88.1,56.7c0.3,0.4,0.5,0.9,0.5,1.5c-0.1,0.1,0.1,0.3,0,0.4h-0.1C87.6,58,87.4,57,87,56.1c-0.1,0-0.1-0.1-0.1-0.2
			c0.2-0.2,0.4,0.2,0.6,0.3L88.1,56.7L88.1,56.7z"/>
		<path d="M51.7,56C51.7,56,51.7,56.1,51.7,56c-0.8,0.6-2,1-2.9,0.4c0-0.1,0-0.2,0.1-0.2c0.6-0.2,1.2-0.5,1.8-0.4L51.7,56L51.7,56z"
			/>
		<path d="M46.9,56.1c-0.7,0.4-1.4,1.3-2.2,1.5c-0.2,0.1-0.3,0.3-0.5,0.2c0.4-1.1,1.6-1.7,2.7-1.9V56.1L46.9,56.1z"/>
		<path d="M86.9,57.1c0.1,0.2,0,0.4-0.2,0.4c-0.1,0.1-0.3,0.1-0.4,0c-0.2-0.1-0.2-0.3-0.2-0.4c0.1-0.1,0.2-0.2,0.3-0.2
			C86.6,56.9,86.8,56.9,86.9,57.1L86.9,57.1z"/>
		<path d="M85.1,57.2c-0.1,0.3-0.5,0.5-0.8,0.5c-0.7,0.3-1.4-0.1-2-0.3c0-0.2,0.2-0.1,0.3-0.2c0.7-0.1,1.4-0.3,2.1-0.1
			C84.9,57.1,85.1,57.1,85.1,57.2L85.1,57.2z"/>
		<path d="M46.9,57.8c-0.1,0.1-0.1,0.3-0.3,0.3c-0.1,0.1-0.3,0-0.4-0.1c0-0.1-0.2-0.2-0.1-0.4c0-0.1,0.2-0.2,0.3-0.2
			C46.7,57.5,46.9,57.6,46.9,57.8L46.9,57.8z"/>
		<path d="M48.1,58c-0.1,0.1-0.1,0.3-0.3,0.4c-0.2,0-0.3,0-0.4-0.1c-0.1-0.1-0.1-0.3-0.1-0.4c0-0.1,0.2-0.1,0.3-0.2
			C47.9,57.6,48.1,57.8,48.1,58L48.1,58z"/>
		<path d="M86.5,58.2c0,0.2-0.1,0.3-0.1,0.4c-0.1,0.1-0.3,0.2-0.5,0.1c-0.1,0-0.2-0.2-0.3-0.3c-0.1-0.2,0.1-0.3,0.1-0.4
			C86,57.8,86.4,57.9,86.5,58.2L86.5,58.2z"/>
		<path d="M87.4,58.1c0,0.1,0.1,0.2,0,0.3c-0.1,0.1-0.2,0.4-0.5,0.3c-0.1,0-0.2-0.1-0.3-0.2c-0.1-0.2,0-0.5,0.3-0.6
			C87.2,57.9,87.3,58.1,87.4,58.1L87.4,58.1z"/>
		<path d="M47.4,58.8c0,0.2,0,0.4-0.2,0.6c-0.2,0-0.5,0-0.6-0.2c0-0.2,0-0.5,0.3-0.6C47,58.5,47.3,58.5,47.4,58.8L47.4,58.8z"/>
		<path d="M48.6,58.7c0,0.6-0.2,1.3-0.8,1.6c-0.3,0.1-0.7,0.4-1,0.2v-0.1C47.3,59.7,48.1,59.3,48.6,58.7L48.6,58.7z"/>
		<path d="M83.2,59.2c0.1,0.1-0.1,0.2-0.1,0.3c-0.1,0.1-0.4,0.1-0.5,0c-0.1-0.1-0.2-0.3-0.1-0.4c0-0.1,0.2-0.2,0.3-0.2
			C82.9,58.8,83.1,59,83.2,59.2L83.2,59.2z"/>
		<path d="M50.7,60.1c0.3,0.5,0.1,1.1,0.3,1.7c-0.4,0-0.5-0.4-0.7-0.6c-0.5-0.6-0.4-1.5-0.6-2.2c0-0.1,0.1-0.1,0.1,0
			c0.3,0.2,0.5,0.6,0.8,0.9C50.5,60,50.7,60,50.7,60.1L50.7,60.1z"/>
		<path d="M84.2,59.3c0,0.2-0.2,0.2-0.3,0.3c-0.1,0-0.3-0.1-0.4-0.2c-0.1-0.2,0.1-0.3,0.2-0.4C84,59,84.2,59.1,84.2,59.3L84.2,59.3z
			"/>
		<path d="M86.7,61.2c0,0.1,0,0.2-0.1,0.1h-0.1c-0.6-0.5-1.2-1.2-1.1-2l0.1,0C86.1,59.8,86.7,60.3,86.7,61.2L86.7,61.2z"/>
		<path d="M85.2,60.5c0,0.2-0.1,0.3-0.2,0.4c-0.2,0.1-0.6,0-0.6-0.3c0-0.2,0.2-0.3,0.3-0.4C84.9,60.2,85.1,60.3,85.2,60.5L85.2,60.5
			z"/>
		<path d="M83.8,61c-0.3,0.8-1.1,1.2-1.6,1.8c-0.1-0.1-0.1-0.2,0-0.3c0.2-0.8,0.8-1.6,1.6-1.9C84.1,60.6,83.7,60.8,83.8,61L83.8,61z
			"/>
		<path d="M85.4,61.6c0,0.2-0.2,0.3-0.3,0.4c-0.2,0-0.3-0.1-0.5-0.2c0-0.2,0.1-0.3,0.3-0.4C85.1,61.3,85.3,61.4,85.4,61.6L85.4,61.6
			z"/>
		<path d="M69.8,23.4c0.3,0,0.5,0.2,0.5,0.5c0,0.3-0.2,0.5-0.5,0.5h-6.2c-0.3,0-0.5-0.2-0.5-0.5c0-0.3,0.2-0.5,0.5-0.5H69.8
			L69.8,23.4z M65.4,24.3c0.6,0,0-0.7-0.3-0.7h-0.6c-0.6,0,0,0.7,0.3,0.7H65.4L65.4,24.3z M68,24.3c0.6,0,0-0.7-0.3-0.7h-0.6
			c-0.6,0,0,0.7,0.3,0.7H68L68,24.3z M69.8,23.6h-0.2c-0.6,0-0.1,0.7,0.2,0.7C70.2,24.3,70.3,23.6,69.8,23.6L69.8,23.6z"/>
		<path d="M69.3,30.5l1.2,0.5l1.2-0.5l-0.5,1.7l0.9-0.2l-0.3,1.1l0.3,1l-0.8-0.2l0.4,1.9l-1.2-0.5l-1.2,0.5l0.5-1.9l-0.9,0.3
			l0.3-1.1l-0.3-1l0.9,0.1L69.3,30.5L69.3,30.5z M71,33.6c0.3,0,0.3-0.4,0.3-0.7c0-0.7-0.6,0-0.9-0.7c-0.2,0.6-0.8,0-0.8,0.7
			c0,0.4,0,0.7,0.4,0.7H71L71,33.6z M69.9,33c0,0.3,0.4,0.1,0.6,0.1c0.3,0,0.6,0.2,0.6-0.1c0-0.4-0.4-0.3-0.6-0.3
			C70.2,32.7,69.9,32.6,69.9,33L69.9,33z"/>
		<polygon points="66.5,33.1 66.5,32.8 66.3,32.8 66.5,32.6 66.4,32.5 66.6,32.5 66.7,32.3 66.8,32.5 67,32.5 66.9,32.6 67.1,32.8 
			66.9,32.8 66.9,33.1 66.7,32.9 66.5,33.1 		"/>
		<polygon points="65.6,34.2 65.6,34 65.4,34 65.5,33.8 65.4,33.7 65.6,33.7 65.8,33.5 65.9,33.7 66.1,33.7 66,33.8 66.1,34 
			65.9,34 65.9,34.2 65.8,34.1 65.6,34.2 		"/>
		<polygon points="67.1,34.1 67.1,33.9 66.9,33.8 67.1,33.7 67,33.5 67.2,33.5 67.3,33.3 67.4,33.5 67.6,33.5 67.6,33.7 67.7,33.8 
			67.5,33.9 67.5,34.1 67.3,34 67.1,34.1 		"/>
		<polygon points="67.3,35 67.3,34.9 67.2,34.8 67.3,34.7 67.2,34.6 67.4,34.7 67.4,34.5 67.5,34.7 67.6,34.6 67.6,34.7 67.6,34.8 
			67.5,34.9 67.5,35 67.4,34.9 67.3,35 		"/>
		<polygon points="65.9,36 65.9,35.6 65.5,35.5 65.8,35.3 65.6,35 66,35 66.2,34.6 66.4,35 66.8,35 66.6,35.3 66.9,35.5 66.5,35.6 
			66.5,36 66.2,35.8 65.9,36 		"/>
		<polygon points="66.6,16.1 67.3,18 69.2,17.4 68.3,19.1 69.8,20.2 67.9,20.6 68,22.5 66.6,21.2 65.2,22.5 65.3,20.6 63.4,20.2 
			65,19.1 64,17.4 65.9,18 66.6,16.1 		"/>
		<path d="M59.9,56.7c-0.2,0.1-0.3,0.1-0.3,0.4l0.3,1.1c0,0.2,0.1,0.5-0.1,0.7c-0.2,0.2-0.5,0.4-0.8,0.5c-0.2,0-0.6,0.1-0.9,0
			c-0.2-0.1-0.3-0.2-0.4-0.6l-0.3-1.2c-0.1-0.3-0.2-0.3-0.4-0.2l0-0.1l1.4-0.3l0,0.1c-0.3,0.1-0.4,0.1-0.3,0.4l0.3,1.2
			c0,0.2,0.2,0.7,0.8,0.5c0.7-0.2,0.6-0.7,0.6-0.9l-0.3-1.1c0-0.2-0.1-0.3-0.5-0.2l0-0.1L59.9,56.7L59.9,56.7L59.9,56.7z"/>
		<path d="M61.9,57c-0.1-0.2-0.5-0.6-1-0.5c-0.2,0-0.4,0.2-0.4,0.4c0,0.2,0.1,0.2,0.5,0.3l0.7,0.1c0.2,0,0.5,0.2,0.6,0.5
			c0.1,0.3-0.1,0.8-0.9,1c-0.4,0.1-0.6,0-0.7,0c-0.1,0-0.1,0.1-0.1,0.1l-0.1,0l-0.2-0.9l0.1,0c0.2,0.3,0.5,0.7,1,0.6
			c0.5-0.1,0.4-0.5,0.4-0.5c-0.1-0.2-0.3-0.3-0.6-0.3l-0.3,0c-0.8-0.1-0.8-0.4-0.9-0.6c0-0.2,0-0.7,0.8-0.9c0.3-0.1,0.6,0,0.7,0
			c0.1,0,0.1-0.1,0.1-0.1l0.1,0l0.2,0.8L61.9,57L61.9,57z"/>
		<path d="M64.7,58.3l-1.5,0.1l0-0.1c0.3-0.1,0.4-0.1,0.4-0.4l-0.2-1.9c-0.3,0-0.7,0.1-0.8,0.7l-0.1,0l-0.1-0.7l2.5-0.2l0.1,0.7
			l-0.1,0c-0.1-0.6-0.6-0.5-0.9-0.5l0.2,1.9C64.3,58.3,64.4,58.3,64.7,58.3L64.7,58.3L64.7,58.3z"/>
		<path d="M68.2,58.3l-0.9,0l-0.9-1.1l-0.1,0l0,0.7c0,0.3,0.1,0.3,0.4,0.3l0,0.1l-1.4,0l0-0.1c0.3,0,0.4,0,0.4-0.3l0-1.6
			c0-0.3-0.1-0.3-0.4-0.3l0-0.1l1.4,0c0.3,0,1.2,0.1,1.2,0.7c0,0.4-0.4,0.5-0.7,0.6l0.8,1C68.1,58.2,68.2,58.2,68.2,58.3L68.2,58.3
			L68.2,58.3z M66.4,57.1c0.6,0,0.8-0.1,0.8-0.5c0-0.4-0.2-0.5-0.5-0.5c-0.2,0-0.2,0-0.3,0.1L66.4,57.1L66.4,57.1z"/>
		<path d="M71,58.7l-1.4-0.2l0-0.1c0.3,0,0.3,0,0.4-0.1c0-0.1-0.1-0.4-0.1-0.5l-1-0.1c-0.1,0.2-0.2,0.4-0.2,0.4
			c0,0.1,0.2,0.2,0.3,0.2l0,0.1l-0.9-0.1l0-0.1c0.2,0,0.3-0.1,0.5-0.4l1.2-1.8l0.1,0l0.7,2C70.8,58.5,70.8,58.6,71,58.7L71,58.7
			L71,58.7z M69.9,57.7l-0.3-0.9L69,57.6L69.9,57.7L69.9,57.7z"/>
		<path d="M73.5,59.2l-2.4-0.4l0-0.1c0.2,0,0.4,0,0.4-0.2l0.3-1.7c0-0.2-0.1-0.3-0.3-0.3l0-0.1l1.5,0.3l0,0.1
			c-0.3,0-0.4-0.1-0.5,0.2l-0.3,1.7c0,0.2,0.1,0.2,0.3,0.3c0.6,0.1,0.9-0.1,1.2-0.5l0.1,0L73.5,59.2L73.5,59.2z"/>
		<path d="M75.1,59.6l-1.5-0.3l0-0.1c0.2,0,0.4,0,0.4-0.2l0.4-1.7c0-0.2-0.1-0.3-0.3-0.3l0-0.1l1.5,0.3l0,0.1
			c-0.2,0-0.4-0.1-0.4,0.2l-0.4,1.7C74.8,59.4,74.9,59.4,75.1,59.6L75.1,59.6L75.1,59.6z"/>
		<path d="M78.1,59.9l-1.4-0.1l0-0.1c0.3,0,0.3,0,0.4-0.1c0-0.1-0.1-0.4-0.1-0.5L76,59c-0.1,0.2-0.2,0.4-0.2,0.4
			c0,0.1,0.2,0.2,0.3,0.2l0,0.1l-0.9-0.1l0-0.1c0.2,0,0.3-0.1,0.5-0.4l1.1-1.9l0.1,0l0.8,2C77.8,59.7,77.9,59.8,78.1,59.9L78.1,59.9
			L78.1,59.9z M76.9,59l-0.3-0.9l-0.5,0.8L76.9,59L76.9,59z"/>
		<path d="M67.2,31.1c0-0.9-0.5-0.1-0.7-0.8c-0.2,0.6-0.8,0.1-0.8,0.8c0,0.3,0.1,0.4,0.2,0.5v0.3c0,0.1,0.1,0.1,0.1,0.1h0.9
			c0.1,0,0.1-0.1,0.1-0.1v-0.3C67.1,31.4,67.2,31.3,67.2,31.1L67.2,31.1z M66.5,31.2c-0.3,0-0.6,0.2-0.6-0.1c0-0.4,0.3-0.3,0.5-0.3
			c0.3,0,0.6-0.1,0.6,0.3C67,31.4,66.7,31.2,66.5,31.2L66.5,31.2z"/>
		<path d="M74.7,41.6c0.2,0,0.4-0.2,0.4-0.3c0-0.2-0.2-0.3-0.4-0.3c-0.2,0-0.4,0.2-0.4,0.3C74.3,41.5,74.5,41.6,74.7,41.6L74.7,41.6
			z"/>
		<path d="M72.8,28.9c0,0-0.2,0.3-0.2,0.4c0,0.1,0.1,0.2,0.2,0.2c0.1,0,0.2-0.1,0.2-0.2C73,29.3,72.8,28.9,72.8,28.9L72.8,28.9z"/>
		<path d="M60.2,28.9c0,0-0.2,0.3-0.2,0.4c0,0.1,0.1,0.2,0.2,0.2c0.1,0,0.2-0.1,0.2-0.2C60.4,29.3,60.2,28.9,60.2,28.9L60.2,28.9z"
			/>
		<path d="M63.4,28.9c0,0-0.2,0.3-0.2,0.4c0,0.1,0.1,0.2,0.2,0.2c0.1,0,0.2-0.1,0.2-0.2C63.5,29.3,63.4,28.9,63.4,28.9L63.4,28.9z"
			/>
		<path d="M66.5,28.9c0,0-0.2,0.3-0.2,0.4c0,0.1,0.1,0.2,0.2,0.2c0.1,0,0.2-0.1,0.2-0.2C66.7,29.3,66.5,28.9,66.5,28.9L66.5,28.9z"
			/>
		<path d="M69.7,28.9c0,0-0.2,0.3-0.2,0.4c0,0.1,0.1,0.2,0.2,0.2s0.2-0.1,0.2-0.2C69.9,29.3,69.7,28.9,69.7,28.9L69.7,28.9z"/>
		<path d="M60.2,33.2c0,0,0.2,0.3,0.2,0.4c0,0.1-0.1,0.2-0.2,0.2c-0.1,0-0.2-0.1-0.2-0.2C60,33.6,60.2,33.2,60.2,33.2L60.2,33.2z"/>
		<path d="M60.2,37.4c0,0,0.2,0.3,0.2,0.4c0,0.1-0.1,0.2-0.2,0.2c-0.1,0-0.2-0.1-0.2-0.2C60,37.8,60.2,37.4,60.2,37.4L60.2,37.4z"/>
		<path d="M60.7,40.8c0,0,0.2,0.3,0.2,0.4c0,0.1-0.1,0.2-0.2,0.2c-0.1,0-0.2-0.1-0.2-0.2C60.5,41.1,60.7,40.8,60.7,40.8L60.7,40.8z"
			/>
		<path d="M63.4,42.5c0,0,0.2,0.3,0.2,0.4c0,0.1-0.1,0.2-0.2,0.2c-0.1,0-0.2-0.1-0.2-0.2C63.2,42.9,63.4,42.5,63.4,42.5L63.4,42.5z"
			/>
		<path d="M73,33.2c0,0-0.2,0.3-0.2,0.4c0,0.1,0.1,0.2,0.2,0.2c0.1,0,0.2-0.1,0.2-0.2C73.2,33.6,73,33.2,73,33.2L73,33.2z"/>
		<path d="M73,37.4c0,0-0.2,0.3-0.2,0.4c0,0.1,0.1,0.2,0.2,0.2c0.1,0,0.2-0.1,0.2-0.2C73.2,37.8,73,37.4,73,37.4L73,37.4z"/>
		<path d="M72.5,40.8c0,0-0.2,0.3-0.2,0.4c0,0.1,0.1,0.2,0.2,0.2c0.1,0,0.2-0.1,0.2-0.2C72.7,41.1,72.5,40.8,72.5,40.8L72.5,40.8z"
			/>
		<path d="M69.8,42.5c0,0-0.2,0.3-0.2,0.4c0,0.1,0.1,0.2,0.2,0.2c0.1,0,0.2-0.1,0.2-0.2C70,42.9,69.8,42.5,69.8,42.5L69.8,42.5z"/>
		<path d="M66.6,44.4c0,0-0.2,0.3-0.2,0.4c0,0.1,0.1,0.2,0.2,0.2c0.1,0,0.2-0.1,0.2-0.2C66.8,44.8,66.6,44.4,66.6,44.4L66.6,44.4z"
			/>
		<path d="M71.7,38.1c0,0.1,0.1,0.1,0.3,0l0.1-0.3c0,0-0.1-0.2-0.2-0.1c-0.3,0.1-0.7,0.1-0.9,0.4c0,0.2,0.2,0.4,0.3,0.5
			c0.1,0,0.1,0.1,0.2,0.1c0,0.1,0,0.2-0.1,0.2c-0.2-0.2-0.7,0.1-0.8-0.2c0.1-0.3,0.2-0.6,0-0.9c0-0.1,0.1-0.1,0.1-0.2
			c-0.1-0.3-0.4-0.1-0.6-0.1c-0.3,0-0.5,0.1-0.7,0.4c0,0.1,0.1,0.2,0.2,0.3c0.1,0,0.1,0,0.1,0.1l-0.2,0.1c0.1,0.1,0.1,0.1,0.1,0.2
			c-0.1,0.1-0.3-0.1-0.3-0.2c0-0.2,0-0.4-0.2-0.5c0,0-0.2,0.1-0.2,0.1c0,0.1-0.1,0.2-0.1,0.3c0,0.1,0.1,0.4,0.1,0.4s0.6,0.5,0.8,0.7
			c-0.2,0.4-0.2,0.9-0.6,1.1c-0.1,0.1-0.1,0.2-0.1,0.3l0.1,0.1c0.3-0.1,0.8-0.2,0.7-0.6c0.1-0.2,0.2-0.4,0.4-0.5
			c0.2,0,0.4,0.1,0.5,0.2c-0.1,0.3-0.3,0.5-0.5,0.6c0,0,0,0.1,0,0.2c0.1,0.1,0.3,0.1,0.4,0.1c0.3-0.2,0.5-0.6,0.8-0.7
			c0,0.2-0.4,0.3-0.1,0.5c0.2,0,0.4,0,0.5-0.2c-0.1-0.3,0.5-0.5,0.1-0.8c0-0.3,0.3-0.4,0.3-0.7c-0.1-0.3-0.5-0.3-0.6-0.6
			C71.4,38.1,71.6,38.1,71.7,38.1L71.7,38.1z"/>
		<path d="M57.2,41.8c0.2,0,0.4-0.2,0.4-0.3c0-0.2-0.2-0.3-0.4-0.3c-0.2,0-0.4,0.2-0.4,0.3C56.8,41.6,57,41.8,57.2,41.8L57.2,41.8z"
			/>
		<path d="M36.8,53.7c0.2,0,0.4-0.2,0.4-0.4c0-0.2-0.2-0.4-0.4-0.4c-0.2,0-0.4,0.2-0.4,0.4C36.4,53.6,36.6,53.7,36.8,53.7L36.8,53.7
			z"/>
		<path d="M49.8,56.6L49.8,56.6L49.8,56.6L49.8,56.6L49.8,56.6C49.7,56.6,49.8,56.6,49.8,56.6L49.8,56.6L49.8,56.6L49.8,56.6
			C49.7,56.6,49.7,56.6,49.8,56.6L49.8,56.6C49.7,56.6,49.7,56.6,49.8,56.6L49.8,56.6L49.8,56.6C49.8,56.6,49.8,56.6,49.8,56.6
			C49.8,56.6,49.8,56.6,49.8,56.6L49.8,56.6C49.8,56.6,49.8,56.6,49.8,56.6L49.8,56.6L49.8,56.6z M49.7,56.6
			C49.8,56.6,49.8,56.6,49.7,56.6C49.8,56.6,49.8,56.6,49.7,56.6C49.7,56.6,49.7,56.6,49.7,56.6L49.7,56.6L49.7,56.6z"/>
		<path d="M49.9,56.6C49.9,56.6,49.8,56.6,49.9,56.6C49.8,56.6,49.8,56.6,49.9,56.6C49.8,56.6,49.8,56.6,49.9,56.6L49.9,56.6
			C49.9,56.6,49.9,56.6,49.9,56.6C49.9,56.6,49.9,56.6,49.9,56.6C49.8,56.6,49.8,56.6,49.9,56.6C49.8,56.6,49.8,56.6,49.9,56.6
			L49.9,56.6L49.9,56.6L49.9,56.6C49.8,56.6,49.8,56.6,49.9,56.6C49.9,56.6,49.9,56.6,49.9,56.6C49.9,56.6,49.8,56.6,49.9,56.6
			L49.9,56.6C49.8,56.6,49.8,56.6,49.9,56.6C49.8,56.6,49.8,56.6,49.9,56.6C49.8,56.6,49.9,56.6,49.9,56.6
			C49.9,56.6,49.9,56.6,49.9,56.6L49.9,56.6L49.9,56.6L49.9,56.6L49.9,56.6z"/>
		<path d="M50,56.6C50,56.6,50,56.6,50,56.6L50,56.6L50,56.6L50,56.6L50,56.6L50,56.6L50,56.6l-0.1,0c0,0,0,0,0,0v0L50,56.6L50,56.6
			C49.9,56.6,49.9,56.6,50,56.6C49.9,56.6,49.9,56.6,50,56.6L50,56.6L50,56.6L50,56.6L50,56.6C49.9,56.6,49.9,56.6,50,56.6L50,56.6
			L50,56.6L50,56.6C49.9,56.6,49.9,56.6,50,56.6C49.9,56.6,49.9,56.6,50,56.6L50,56.6L50,56.6L50,56.6C50,56.6,50,56.6,50,56.6
			C50,56.6,50,56.6,50,56.6L50,56.6L50,56.6L50,56.6L50,56.6z"/>
		<path d="M50,56.6C50,56.6,50,56.6,50,56.6C50,56.6,50,56.6,50,56.6C50,56.6,50,56.6,50,56.6C50,56.6,50,56.6,50,56.6
			C50,56.6,50,56.6,50,56.6C50,56.6,50,56.6,50,56.6C50,56.6,50,56.6,50,56.6L50,56.6L50,56.6z M50,56.6C50,56.6,50,56.6,50,56.6
			C50,56.6,50,56.6,50,56.6C50,56.6,50,56.6,50,56.6C50,56.6,50,56.6,50,56.6C50,56.6,50,56.6,50,56.6L50,56.6z"/>
		<path d="M50.1,56.6C50.1,56.6,50.1,56.6,50.1,56.6C50.1,56.6,50.1,56.6,50.1,56.6C50.1,56.6,50.1,56.6,50.1,56.6
			C50.1,56.6,50.1,56.6,50.1,56.6C50.1,56.6,50.1,56.6,50.1,56.6C50.1,56.6,50.1,56.6,50.1,56.6C50.1,56.6,50.1,56.6,50.1,56.6
			C50.1,56.6,50.1,56.6,50.1,56.6C50.1,56.6,50.1,56.6,50.1,56.6L50.1,56.6L50.1,56.6L50.1,56.6L50.1,56.6L50.1,56.6L50.1,56.6z"/>
		<path d="M73.9,28.4L73.9,28.4l-14.6,0v0h0l0,11.1c0,1.1,0.5,2.1,1.1,2.4l5.6,3.6c0.1,0.1,0.3,0.2,0.5,0.2c0.2,0,0.3-0.1,0.5-0.2
			l5.7-3.6c0.7-0.3,1.1-1.3,1.1-2.4L73.9,28.4L73.9,28.4L73.9,28.4z M73.5,39.7c-0.1,0.8-0.4,1.5-0.9,1.9L67,45.1h0
			c-0.1,0.1-0.3,0.1-0.4,0.1c-0.2,0-0.3-0.1-0.4-0.2l-5.5-3.5c-0.6-0.4-0.9-1.1-0.9-1.9V28.8h13.7V39.7L73.5,39.7z"/>
		<path d="M68.5,44.6l0.2-0.1C68.7,44.6,68.6,44.6,68.5,44.6L68.5,44.6z"/>
		<path d="M57.6,59.8L56.2,60l0-0.1c0.3,0,0.3-0.1,0.3-0.2c0-0.1-0.2-0.3-0.2-0.4l-1,0.1c-0.1,0.3-0.1,0.4-0.1,0.5
			c0,0.1,0.2,0.1,0.4,0.1l0,0.1l-0.9,0.1l0-0.1c0.2-0.1,0.3-0.2,0.4-0.5l0.7-2.1l0.1,0l1.2,1.8C57.3,59.7,57.4,59.8,57.6,59.8
			L57.6,59.8L57.6,59.8z M56.2,59.1l-0.5-0.8l-0.3,0.9L56.2,59.1L56.2,59.1z"/>
		<path d="M81.7,54.6c-0.3-0.7-0.8-1.1-1.4-1.3c-0.7-0.1-1.4,0-1.8,0.5c-0.8,0.6-0.2,1.6-0.2,2.4c0,0.2,0,0.3-0.1,0.4
			c-3-0.3-5.8-1-8.9-1.3c-0.7-0.1-1.4-0.1-2-0.2l-0.8-0.1c-2.6,0.1-5.2,0.2-7.7,0.9C58.2,56,57.6,56,57,56.2c-0.4-0.1-0.7,0.2-1,0.1
			l-0.7,0.2c-0.1,0-0.1,0-0.2,0c-0.3-0.9,0.7-1.4,0.4-2.2c-0.3-0.5-0.8-0.9-1.4-0.9c-0.7-0.1-1.3,0.3-1.7,0.9
			c-0.5,1.1,0.1,2.1,0.3,3.2c0,0.3,0.3,0.7,0,1c-0.7-0.5-1.5-0.7-2.4-0.5c-0.3,0.1-0.7,0-0.8,0.3c0.9,0.5,2,0.4,3,0.4
			c0.1,0,0.2-0.1,0.3,0c0.1,0.5-0.1,1.3,0.2,1.8c0.4,0.5,1,0.6,1.6,0.7c1.9-0.1,3.6-0.6,5.4-1.1c0.3,0,0.5-0.2,0.8-0.2
			c0.9-0.2,2-0.4,3-0.4c-0.4,0.6-0.7,1.2-0.9,1.9c-0.3,0.6,0.4,0.7,0.6,1c-0.6,0.2-1.1,0.6-1.7,0.9c-1.3,0-2.5,0.5-3.7,0.6
			c0,0.3,0.4,0.2,0.5,0.5c-0.1,0.2-0.3,0.2-0.4,0.3c0,0.1,0,0.1,0.1,0.2c0.1-0.1,0.4,0,0.5-0.2c0.4,0,0.8-0.1,1.2-0.1
			c0.4-0.1,0.8-0.2,1.1-0.4c0.4-0.1,0.7-0.4,1.1-0.5c0.6,0,1.2-0.2,1.8-0.3v0.1c-0.5,0.8-1,1.6-1.5,2.3c-0.1,0.1,0,0.3,0.1,0.3
			c0.3,0.1,0.6,0,0.8-0.1c0.4-0.8,0.8-1.5,1.2-2.3c0.1-0.7,0.7-1.1,1.2-1.6c0.1,0,0.2-0.2,0.3,0c-0.4,0.5-0.7,0.9-1,1.5
			c-0.2,0.6-0.2,1.3,0.3,1.8c0.3,0.2,0.6,0.1,1,0.2c0.8-0.4,1.9,0.3,2.5-0.5c0.4-0.1,0.4,0.4,0.6,0.6c0.4,0.1,0.7,0.5,1.1,0.2
			c0-0.2-0.3-0.4-0.4-0.7c-0.3-0.4-0.6-0.8-0.8-1.2c-0.1-0.3-0.3-0.5-0.3-0.8c0.4,0.1,0.7,0.4,1.1,0.4c0.4,0.1,0.8,0.1,1.1,0.3
			c0.3,0.4,0.7,0.6,1,0.8c0.5,0.3,1.1,0.3,1.7,0.5c0.2,0,0.5,0.2,0.7,0c-0.1-0.1-0.2-0.2-0.3-0.2c-0.1-0.3,0.4-0.1,0.5-0.3
			c-0.1-0.1-0.1-0.1-0.2-0.2c-0.3-0.2-1-0.2-1.2-0.3c-0.3,0-0.5-0.1-0.7-0.2c-1.3,0-1.9-1.1-2.9-1.6c0.2-0.2,0.6-0.4,0.7-0.7
			c0.2-0.3,0.3-0.8,0.1-1.1c-0.2-0.7-1-0.6-1.5-0.9l0.1-0.1c0.8,0,1.5,0.1,2.3,0.3c2,0.3,3.9,1,6,1.1c1.1,0,2.6,0.1,3.2-1.1
			c0.1-0.7,0.2-1.3,0.3-2C81.1,56.7,81.8,55.8,81.7,54.6L81.7,54.6z M59.1,64.2l-0.3-0.3c0.1-0.2,0.5-0.1,0.7-0.2
			c0.5-0.2,1.2-0.4,1.8-0.3C60.7,64,59.8,64,59.1,64.2L59.1,64.2z M72.2,63.9c0.5,0.2,1.5,0.4,2.2,0.5c-0.1,0.3-0.6,0-0.5,0.4
			c-0.6-0.3-1.4-0.4-1.9-0.9C72,63.9,72.1,63.9,72.2,63.9L72.2,63.9z M52.6,54.9c0.1-0.4,0.1-0.8,0.5-1.1c0.5-0.3,1.2-0.2,1.7,0.1
			c0.1,0.1,0.3,0.2,0.3,0.4c0.1,0.4-0.1,0.7-0.3,0.9h-0.2c0-0.3,0-0.7,0.1-0.9c0-0.3-0.2-0.3-0.4-0.4c-0.4-0.1-0.7,0.1-0.9,0.2
			c-0.2,0.3-0.4,0.6-0.3,0.9c0.1,0.2,0,0.5,0.1,0.8L53.1,56C52.8,55.7,52.5,55.4,52.6,54.9L52.6,54.9z M53.5,55.5
			c0.3,0.2,0.8,0.1,1.1,0.2c0.1,0.2,0.1,0.5-0.1,0.7c-0.4-0.1-0.8,0-1-0.4C53.6,55.9,53.5,55.7,53.5,55.5L53.5,55.5z M53.5,54.8
			c0.1-0.2,0-0.4,0.2-0.5c0.1,0,0.4,0,0.4,0.1c0,0.3,0,0.5-0.1,0.7C53.7,55.2,53.6,55.1,53.5,54.8L53.5,54.8z M63.3,61.6
			c-0.1-0.7,0.2-1.4,0.7-1.9c0.3-0.1,0.6-0.1,0.9,0c-0.5,0.1-1.2,0.3-1.4,1c0,0.3-0.1,0.4,0.1,0.7c0.2,0.4,0.8,0.2,1,0.5
			c0,0.1-0.1,0.2-0.2,0.3C64,61.9,63.6,61.9,63.3,61.6L63.3,61.6z M62.5,63c0.5-0.2,1-0.7,1.6-0.5C63.7,62.9,63.1,63,62.5,63
			L62.5,63z M64.5,63.2c-0.3,0.7-0.6,1.3-1,2c0,0.1-0.2,0.1-0.3,0.1c0-0.3,0.3-0.5,0.4-0.8c0.4-0.6,0.6-1.2,1.1-1.7
			C64.8,63,64.5,63.1,64.5,63.2L64.5,63.2z M65,62L65,62L65,62L65,62L65,62L65,62C65,62,65,62,65,62L65,62L65,62z M64.8,61.5
			c-0.4,0-0.7-0.1-1-0.3c-0.2-0.2,0-0.4,0-0.7c0.3-0.5,1.1-0.7,1.5-0.3C65.3,60.7,65.1,61.1,64.8,61.5L64.8,61.5z M65.3,61.5
			c0.1-0.3,0.2-0.6,0.3-0.9C65.6,60.8,65.5,61.2,65.3,61.5L65.3,61.5z M65.5,59.7c-0.3-0.1-0.4-0.4-0.7-0.4c0.3-0.1,0.5-0.1,0.8,0
			C65.7,59.5,65.5,59.6,65.5,59.7L65.5,59.7z M65.8,60.4L65.8,60.4l0-0.2h0V60.4L65.8,60.4z M65.8,61.3c0-0.1,0-0.2,0.1-0.3
			c0.1-0.1,0.2,0.1,0.3,0.1C66,61.3,65.9,61.4,65.8,61.3L65.8,61.3z M66.1,60c0.1-0.3,0.1-0.5,0.3-0.8c0.2,0,0.4,0,0.6,0.1
			c0,0.4,0.6,1,0,1.3c-0.2,0.1-0.5,0.3-0.7,0.1C66,60.5,66,60.3,66.1,60L66.1,60z M67.6,59.5c0-0.2,0.2,0,0.3-0.1l0.6,0
			C68.2,59.3,67.8,60.1,67.6,59.5L67.6,59.5z M68.7,59.7c-0.3,0.1-0.4,0.4-0.7,0.4C68.1,59.9,68.4,59.7,68.7,59.7L68.7,59.7z
			 M67.8,61L67.8,61L67.8,61L67.8,61L67.8,61L67.8,61z M67.8,62.3c0,0,0,0.1,0,0.1l-0.5-0.4C67.6,62,67.7,62.1,67.8,62.3L67.8,62.3z
			 M67.3,61.7c0,0,0.1,0,0.2,0H67.3L67.3,61.7z M67,61.3c0.1-0.1,0.2-0.3,0.3-0.3c0,0,0,0,0,0.1C67.2,61.2,67.1,61.3,67,61.3
			L67,61.3z M66.5,61.3L66.5,61.3l0-0.1C66.6,61.2,66.5,61.3,66.5,61.3L66.5,61.3z M66.6,62.1c0.3-0.3,0.5,0.2,0.6,0.4
			c0.3,0.5,1.1,0.9,0.8,1.5c-0.4,0.4-1,0-1.5,0.3c-0.2,0-0.6,0-0.8-0.2C66,63.4,66.2,62.7,66.6,62.1L66.6,62.1z M66,62.5l0.1-0.2
			c-0.2,0.5-0.4,1-0.7,1.5C65.3,63.3,65.8,62.9,66,62.5L66,62.5z M66.9,65c-0.4,0-1,0.3-1.4-0.1c0-0.2-0.2-0.3-0.1-0.4
			c0.3-0.1,0.6,0.3,0.9,0c0.5,0,1-0.1,1.5,0c0.2,0.1,0.6-0.4,0.6,0.1C68.2,65.3,67.4,64.8,66.9,65L66.9,65z M68.1,62L68.1,62
			L68.1,62L68.1,62L68.1,62L68.1,62z M68.2,63.3c0,0.2,0.2,0.3,0.1,0.5C68.3,63.7,68.2,63.5,68.2,63.3L68.2,63.3z M68.8,64.6l-0.1,0
			c-0.1-0.1-0.1-0.3,0-0.4C68.8,64.3,68.9,64.4,68.8,64.6L68.8,64.6z M69.9,65.1c0,0.1-0.1,0.1-0.2,0c-0.6-0.8-0.9-1.6-1.3-2.5
			l0.1,0C69,63.4,69.4,64.3,69.9,65.1L69.9,65.1z M70.6,63.1C70.6,63.2,70.6,63.2,70.6,63.1c-0.6,0.1-1-0.3-1.5-0.6l0-0.1
			C69.7,62.5,70.1,62.9,70.6,63.1L70.6,63.1z M70.1,60.3c0.3,0.1,0.3,0.3,0.3,0.5c0,0.5-0.3,0.9-0.7,1c-0.2,0.1-0.6,0.2-0.8,0.1
			c0.5,0,1-0.2,1.3-0.7L70.1,60.3L70.1,60.3z M69.6,60.3c0.1,0.3,0.3,0.6,0.2,0.9c-0.2,0.4-0.6,0.4-1,0.5c-0.2,0-0.3,0-0.5-0.1
			c0-0.1,0-0.1-0.1-0.2c0.1-0.3-0.5-0.5-0.1-0.8C68.5,60.2,69.3,59.5,69.6,60.3L69.6,60.3z M80.3,58.7c-0.2,0.2,0,0.5-0.2,0.7
			c0,0.4-0.3,0.6-0.6,0.7c-2.5,0.5-4.9-0.3-7.3-0.7c-3.4-0.7-7.3-0.9-10.7-0.2c-1.6,0.3-3.2,0.7-4.7,1.1c-1,0.1-2,0.3-2.9,0
			c-0.8-0.4-0.4-1.3-0.7-2c0-0.5-0.1-0.9-0.2-1.5c-0.1-0.2-0.1-0.4-0.1-0.5c0.3,0,0.6,0.3,1,0.4c1.8,0.3,3.3-0.2,5-0.5
			c1.6-0.3,3.2-0.6,4.8-0.7c1.9,0,3.8-0.1,5.6,0.2c0.6,0,1.1,0.2,1.6,0.2c1.2,0.1,2.3,0.5,3.4,0.5c0.2,0.1,0.4,0.1,0.6,0.1
			c1.9,0.3,4,0.8,5.8,0C80.7,57.3,80.4,58,80.3,58.7L80.3,58.7z M79.7,56.1c0,0.3-0.3,0.3-0.5,0.4h-0.5c-0.1-0.2-0.1-0.4-0.1-0.6
			C79,56,79.4,56,79.7,56.1L79.7,56.1z M79.4,55.6c0.2-0.2-0.1-1.6,0.6-0.7c0,0.2,0,0.4-0.1,0.5C79.8,55.6,79.6,55.7,79.4,55.6
			L79.4,55.6z M81.1,55.4c-0.2,0.4-0.5,0.7-0.9,0.7c0-0.5,0.5-0.9,0.3-1.4c-0.3-0.4-0.8-0.5-1.3-0.4c-0.2,0.1-0.1,0.3-0.2,0.5
			L79,55.5c-0.4,0-0.4-0.4-0.6-0.7c0-0.4,0.2-0.9,0.6-1.1c0.3-0.2,0.9-0.1,1.2,0c0.3,0.1,0.6,0.2,0.7,0.4
			C81.3,54.5,81.2,55,81.1,55.4L81.1,55.4z"/>
	</g>
	<line fill="none" stroke="#000000" stroke-miterlimit="10" x1="153.9" y1="1.5" x2="153.9" y2="102.5"/>
	<g>
		<path d="M259,44.8c-1.6,0-2.9-0.6-4.1-1.7l-1.8,2.1c1.6,1.5,3.7,2.2,5.8,2.2c3,0,5-1.5,5-4.3v0c0-2.4-1.6-3.4-4.4-4.1
			c-2.4-0.6-3-0.9-3-1.8v0c0-0.7,0.6-1.2,1.8-1.2s2.4,0.5,3.6,1.4l1.6-2.3c-1.4-1.1-3.1-1.7-5.1-1.7c-2.8,0-4.8,1.6-4.8,4.1v0
			c0,2.7,1.8,3.5,4.5,4.2c2.3,0.6,2.8,1,2.8,1.7v0C261,44.4,260.2,44.8,259,44.8z"/>
		<path d="M275,47.3v-5.9c0-1.4,0.7-2.1,1.8-2.1c1.1,0,1.7,0.7,1.7,2.1v5.9h3v-6.8c0-2.5-1.3-3.9-3.5-3.9c-1.4,0-2.5,0.6-3.5,1.7
			c-0.5-1.1-1.6-1.7-3-1.7c-1.5,0-2.4,0.8-3.1,1.7v-1.5h-3v10.5h3v-5.9c0-1.4,0.7-2.1,1.8-2.1c1.1,0,1.7,0.7,1.7,2.1v5.9H275z"/>
		<path d="M284.4,39.8c1-0.4,1.8-0.6,2.9-0.6c1.5,0,2.3,0.7,2.3,1.9v0.2c-0.7-0.3-1.5-0.4-2.6-0.4c-2.5,0-4.2,1.1-4.2,3.4v0
			c0,2.1,1.6,3.2,3.6,3.2c1.5,0,2.5-0.5,3.2-1.3v1.1h2.9v-6.1c0-1.4-0.4-2.6-1.1-3.4c-0.7-0.7-1.9-1.2-3.5-1.2
			c-1.8,0-2.9,0.3-4.1,0.8L284.4,39.8z M289.5,43.6c0,1.1-0.9,1.8-2.3,1.8c-1,0-1.6-0.5-1.6-1.3v0c0-0.9,0.8-1.5,2.1-1.5
			c0.7,0,1.4,0.2,1.9,0.4V43.6z"/>
		<rect x="294.3" y="33" width="3" height="14.3"/>
		<rect x="299.4" y="33" width="3" height="14.3"/>
		<path d="M321.5,43.6L321.5,43.6c0-1.9-1-2.8-2.6-3.4c1-0.5,1.8-1.4,1.8-3v0c0-0.9-0.3-1.7-0.9-2.3c-0.8-0.8-2-1.2-3.6-1.2h-6.4
			v13.7h6.5C319.5,47.3,321.5,46.1,321.5,43.6z M312.8,36.2h3c1.3,0,2,0.5,2,1.4v0c0,1-0.8,1.5-2.2,1.5h-2.8V36.2z M312.8,41.7h3.5
			c1.5,0,2.2,0.6,2.2,1.5v0c0,1-0.8,1.5-2.1,1.5h-3.6V41.7z"/>
		<path d="M325.8,42.7v-5.9h-3v6.8c0,2.4,1.3,3.9,3.6,3.9c1.5,0,2.4-0.8,3.1-1.7v1.5h3V36.8h-3v5.9c0,1.4-0.7,2.1-1.9,2.1
			C326.5,44.8,325.8,44.1,325.8,42.7z"/>
		<path d="M338.1,45.2c-1,0-2.2-0.4-3.3-1.3l-1.3,2c1.4,1.1,3,1.6,4.5,1.6c2.3,0,4-1.1,4-3.4v0c0-1.9-1.7-2.6-3.2-3.1
			c-1.1-0.4-2.1-0.7-2.1-1.3v0c0-0.4,0.4-0.7,1.1-0.7c0.8,0,1.8,0.4,2.8,1l1.1-2.1c-1.1-0.8-2.6-1.2-3.9-1.2c-2.1,0-3.8,1.2-3.8,3.3
			v0c0,2,1.7,2.7,3.1,3.2c1.2,0.4,2.2,0.6,2.2,1.2v0C339.4,44.9,339,45.2,338.1,45.2z"/>
		<rect x="343.5" y="33" width="3.1" height="2.6"/>
		<rect x="343.5" y="36.8" width="3" height="10.5"/>
		<path d="M351.5,41.5c0-1.4,0.7-2.1,1.9-2.1c1.1,0,1.8,0.7,1.8,2.1v5.9h3v-6.8c0-2.4-1.3-3.9-3.6-3.9c-1.5,0-2.4,0.8-3.1,1.7v-1.5
			h-3v10.5h3V41.5z"/>
		<path d="M364.9,47.6c1.9,0,3.3-0.7,4.3-2l-1.7-1.5c-0.8,0.8-1.5,1.1-2.5,1.1c-1.3,0-2.3-0.7-2.6-2.1h7.3c0-0.3,0-0.5,0-0.8
			c0-3-1.6-5.7-5.1-5.7c-3.1,0-5.2,2.5-5.2,5.5v0C359.5,45.3,361.8,47.6,364.9,47.6z M364.7,39c1.3,0,2,0.9,2.2,2.2h-4.5
			C362.6,39.9,363.4,39,364.7,39z"/>
		<path d="M375,45.2c-1,0-2.2-0.4-3.3-1.3l-1.3,2c1.4,1.1,3,1.6,4.5,1.6c2.3,0,4-1.1,4-3.4v0c0-1.9-1.7-2.6-3.2-3.1
			c-1.1-0.4-2.1-0.7-2.1-1.3v0c0-0.4,0.4-0.7,1.1-0.7c0.8,0,1.8,0.4,2.8,1l1.1-2.1c-1.1-0.8-2.6-1.2-3.9-1.2c-2.1,0-3.8,1.2-3.8,3.3
			v0c0,2,1.7,2.7,3.1,3.2c1.2,0.4,2.2,0.6,2.2,1.2v0C376.2,44.9,375.8,45.2,375,45.2z"/>
		<path d="M383.8,45.2c-1,0-2.2-0.4-3.3-1.3l-1.3,2c1.4,1.1,3,1.6,4.5,1.6c2.3,0,4-1.1,4-3.4v0c0-1.9-1.7-2.6-3.2-3.1
			c-1.1-0.4-2.1-0.7-2.1-1.3v0c0-0.4,0.4-0.7,1.1-0.7c0.8,0,1.8,0.4,2.8,1l1.1-2.1c-1.1-0.8-2.6-1.2-3.9-1.2c-2.1,0-3.8,1.2-3.8,3.3
			v0c0,2,1.7,2.7,3.1,3.2c1.2,0.4,2.2,0.6,2.2,1.2v0C385.1,44.9,384.7,45.2,383.8,45.2z"/>
		<path d="M396.9,47.5c1.5,0,2.5-0.7,3.1-1.5v1.3h1.2V42c0-1.1-0.3-1.9-0.9-2.5c-0.6-0.6-1.6-1-2.8-1c-1.3,0-2.2,0.3-3.2,0.7
			l0.4,1.1c0.8-0.4,1.6-0.6,2.6-0.6c1.6,0,2.6,0.8,2.6,2.4v0.3c-0.8-0.2-1.6-0.4-2.7-0.4c-2.2,0-3.7,1-3.7,2.8v0
			C393.7,46.6,395.3,47.5,396.9,47.5z M395,44.7c0-1.1,0.9-1.8,2.5-1.8c1.1,0,1.9,0.2,2.6,0.4v0.8c0,1.4-1.3,2.4-2.9,2.4
			C396,46.5,395,45.8,395,44.7L395,44.7z"/>
		<path d="M404.7,42.3c0-1.6,1.1-2.7,2.6-2.7c1.5,0,2.4,1,2.4,2.6v5.1h1.3v-5.4c0-2.1-1.2-3.5-3.3-3.5c-1.5,0-2.4,0.8-3,1.7v-1.5
			h-1.3v8.7h1.3V42.3z"/>
		<path d="M416.4,47.5c1.6,0,2.6-0.9,3.3-1.9v1.7h1.3V35.1h-1.3v5.2c-0.7-1-1.7-1.8-3.3-1.8c-2.1,0-4.2,1.7-4.2,4.5v0
			C412.2,45.9,414.3,47.5,416.4,47.5z M413.6,43c0-2.1,1.4-3.3,3.1-3.3c1.6,0,3.1,1.3,3.1,3.3v0c0,2-1.5,3.4-3.1,3.4
			C415,46.3,413.6,45,413.6,43L413.6,43z"/>
		<polygon points="264.5,55 264.5,52.3 254,52.3 254,66 257.1,66 257.1,60.7 263.6,60.7 263.6,57.9 257.1,57.9 257.1,55 		"/>
		<path d="M268.3,66.2c1.5,0,2.5-0.5,3.2-1.3V66h2.9v-6.1c0-1.4-0.4-2.6-1.1-3.4c-0.7-0.7-1.9-1.2-3.5-1.2c-1.8,0-2.9,0.3-4.1,0.8
			l0.7,2.3c1-0.4,1.8-0.6,2.9-0.6c1.5,0,2.3,0.7,2.3,1.9V60c-0.7-0.3-1.5-0.4-2.6-0.4c-2.5,0-4.2,1.1-4.2,3.4v0
			C264.7,65,266.3,66.2,268.3,66.2z M267.6,62.8c0-0.9,0.8-1.5,2.1-1.5c0.7,0,1.4,0.2,1.9,0.4v0.5c0,1.1-0.9,1.8-2.3,1.8
			C268.2,64.1,267.6,63.7,267.6,62.8L267.6,62.8z"/>
		<path d="M292.2,66v-6.8c0-2.5-1.3-3.9-3.5-3.9c-1.4,0-2.5,0.6-3.5,1.7c-0.5-1.1-1.6-1.7-3-1.7c-1.5,0-2.4,0.8-3.1,1.7v-1.5h-3V66
			h3v-5.9c0-1.4,0.7-2.1,1.8-2.1c1.1,0,1.7,0.7,1.7,2.1V66h3v-5.9c0-1.4,0.7-2.1,1.8-2.1c1.1,0,1.7,0.7,1.7,2.1V66H292.2z"/>
		<rect x="294" y="51.7" width="3.1" height="2.6"/>
		<rect x="294.1" y="55.5" width="3" height="10.5"/>
		<rect x="299.3" y="51.7" width="3" height="14.3"/>
		<path d="M307.4,66c-0.3,0.5-0.5,0.7-1,0.7c-0.4,0-0.9-0.2-1.3-0.4l-1,2.2c0.8,0.5,1.6,0.7,2.6,0.7c1.8,0,2.6-0.8,3.5-2.9l4-10.8
			h-3.1l-2.3,7.2l-2.4-7.2h-3.2L307.4,66z"/>
		<polygon points="331,55 331,52.3 320.7,52.3 320.7,66 331.1,66 331.1,63.3 323.7,63.3 323.7,60.4 330.1,60.4 330.1,57.7 
			323.7,57.7 323.7,55 		"/>
		<path d="M335.7,60.1c0-1.4,0.7-2.1,1.9-2.1c1.1,0,1.8,0.7,1.8,2.1V66h3v-6.8c0-2.4-1.3-3.9-3.6-3.9c-1.5,0-2.4,0.8-3.1,1.7v-1.5
			h-3V66h3V60.1z"/>
		<path d="M344.6,63c0,2.4,1.2,3.2,3.1,3.2c1,0,1.7-0.2,2.4-0.6v-2.4c-0.4,0.2-0.9,0.4-1.5,0.4c-0.7,0-1-0.3-1-1V58h2.5v-2.5h-2.5
			v-2.7h-3v2.7h-1.3V58h1.3V63z"/>
		<path d="M350.7,60.8L350.7,60.8c0,3.3,2.3,5.5,5.5,5.5c1.9,0,3.3-0.7,4.3-2l-1.7-1.5c-0.8,0.8-1.5,1.1-2.5,1.1
			c-1.3,0-2.3-0.7-2.6-2.1h7.3c0-0.3,0-0.5,0-0.8c0-3-1.6-5.7-5.1-5.7C352.8,55.3,350.7,57.8,350.7,60.8z M358.1,59.9h-4.5
			c0.2-1.4,1-2.2,2.3-2.2C357.1,57.7,357.9,58.6,358.1,59.9z"/>
		<path d="M362.4,55.5V66h3v-3.9c0-2.5,1.2-3.7,3.2-3.7h0.2v-3.1c-1.8-0.1-2.7,0.9-3.4,2.3v-2.1H362.4z"/>
		<path d="M372.8,64.6c0.7,0.8,1.7,1.6,3.3,1.6c2.5,0,4.8-1.9,4.8-5.4v0c0-3.5-2.3-5.4-4.8-5.4c-1.5,0-2.5,0.7-3.3,1.7v-1.5h-3v13.6
			h3V64.6z M372.8,60.7c0-1.7,1.2-2.9,2.5-2.9c1.4,0,2.6,1.2,2.6,2.9v0c0,1.8-1.2,2.9-2.6,2.9C373.9,63.7,372.8,62.5,372.8,60.7
			L372.8,60.7z"/>
		<path d="M385.3,57.6v-2.1h-3V66h3v-3.9c0-2.5,1.2-3.7,3.2-3.7h0.2v-3.1C386.9,55.2,385.9,56.1,385.3,57.6z"/>
		<rect x="389.8" y="55.5" width="3" height="10.5"/>
		<rect x="389.8" y="51.7" width="3.1" height="2.6"/>
		<path d="M398.3,57.6c0.8,0,1.8,0.4,2.8,1l1.1-2.1c-1.1-0.8-2.6-1.2-3.9-1.2c-2.1,0-3.8,1.2-3.8,3.3v0c0,2,1.7,2.7,3.1,3.2
			c1.2,0.4,2.2,0.6,2.2,1.2v0c0,0.5-0.4,0.8-1.3,0.8c-1,0-2.2-0.4-3.3-1.3l-1.3,2c1.4,1.1,3,1.6,4.5,1.6c2.3,0,4-1.1,4-3.4v0
			c0-1.9-1.7-2.6-3.2-3.1c-1.1-0.4-2.1-0.7-2.1-1.3v0C397.2,57.9,397.6,57.6,398.3,57.6z"/>
		<path d="M403.4,60.8L403.4,60.8c0,3.3,2.3,5.5,5.5,5.5c1.9,0,3.3-0.7,4.3-2l-1.7-1.5c-0.8,0.8-1.5,1.1-2.5,1.1
			c-1.3,0-2.3-0.7-2.6-2.1h7.3c0-0.3,0-0.5,0-0.8c0-3-1.6-5.7-5.1-5.7C405.5,55.3,403.4,57.8,403.4,60.8z M410.8,59.9h-4.5
			c0.2-1.4,1-2.2,2.3-2.2C409.8,57.7,410.6,58.6,410.8,59.9z"/>
		<path d="M265.5,77.4L265.5,77.4c0-3.3-2.4-6.1-6-6.1c-3.6,0-6,2.8-6,6.1v0c0,3.2,2.4,6.1,6,6.1C263.1,83.5,265.5,80.6,265.5,77.4z
			 M254.9,77.4L254.9,77.4c0-2.7,1.9-4.9,4.6-4.9c2.7,0,4.6,2.2,4.6,4.9v0c0,2.7-1.9,4.8-4.6,4.8C256.9,82.2,254.9,80.1,254.9,77.4z
			"/>
		<path d="M277.4,74.4c-1.5,0-2.4,0.8-3.1,1.7c-0.5-1-1.4-1.7-2.8-1.7c-1.5,0-2.2,0.8-2.8,1.6v-1.5h-1.3v8.7h1.3v-5
			c0-1.6,1-2.7,2.4-2.7c1.4,0,2.2,1,2.2,2.6v5.1h1.3v-5c0-1.7,1.1-2.7,2.4-2.7c1.4,0,2.3,0.9,2.3,2.6v5.1h1.3v-5.4
			C280.6,75.7,279.4,74.4,277.4,74.4z"/>
		<path d="M291.5,78.9L291.5,78.9c0-2.9-2.1-4.5-4.2-4.5c-1.6,0-2.6,0.9-3.3,1.9V71h-1.3v12.3h1.3v-1.7c0.7,1,1.7,1.8,3.3,1.8
			C289.5,83.5,291.5,81.8,291.5,78.9z M284,78.9L284,78.9c0-2,1.5-3.4,3.1-3.4c1.6,0,3.1,1.3,3.1,3.4v0c0,2.1-1.4,3.3-3.1,3.3
			C285.5,82.3,284,81,284,78.9z"/>
		<path d="M299.4,74.6v5c0,1.6-1.1,2.7-2.6,2.7c-1.5,0-2.4-1-2.4-2.6v-5.1h-1.3V80c0,2.1,1.2,3.5,3.3,3.5c1.5,0,2.4-0.8,3-1.7v1.5
			h1.3v-8.7H299.4z"/>
		<path d="M309.2,71v5.2c-0.7-1-1.7-1.8-3.3-1.8c-2.1,0-4.2,1.7-4.2,4.5v0c0,2.9,2.1,4.5,4.2,4.5c1.6,0,2.6-0.9,3.3-1.9v1.7h1.3V71
			H309.2z M309.3,78.9c0,2-1.5,3.4-3.1,3.4c-1.6,0-3.1-1.3-3.1-3.4v0c0-2.1,1.4-3.3,3.1-3.3C307.8,75.6,309.3,76.9,309.3,78.9
			L309.3,78.9z"/>
		<path d="M318.7,80.8L318.7,80.8c0-1.6-1.4-2.1-2.8-2.5c-1.2-0.4-2.2-0.7-2.2-1.5v0c0-0.7,0.7-1.3,1.7-1.3c0.8,0,1.8,0.3,2.6,0.8
			l0.6-1c-0.9-0.6-2.1-1-3.1-1c-1.7,0-3,1-3,2.5v0c0,1.6,1.5,2.1,2.9,2.5c1.1,0.3,2.2,0.7,2.2,1.5v0c0,0.8-0.8,1.4-1.8,1.4
			c-1,0-2.1-0.4-3-1.1l-0.7,0.9c1,0.8,2.4,1.3,3.6,1.3C317.4,83.4,318.7,82.5,318.7,80.8z"/>
		<path d="M330.4,74.4c-1.5,0-2.4,0.8-3.1,1.7c-0.5-1-1.4-1.7-2.8-1.7c-1.5,0-2.2,0.8-2.8,1.6v-1.5h-1.3v8.7h1.3v-5
			c0-1.6,1-2.7,2.4-2.7c1.4,0,2.2,1,2.2,2.6v5.1h1.3v-5c0-1.7,1.1-2.7,2.4-2.7c1.4,0,2.3,0.9,2.3,2.6v5.1h1.3v-5.4
			C333.6,75.7,332.4,74.4,330.4,74.4z"/>
		<path d="M341.8,75.4c-0.6-0.6-1.6-1-2.8-1c-1.3,0-2.2,0.3-3.2,0.7l0.4,1.1c0.8-0.4,1.6-0.6,2.6-0.6c1.6,0,2.6,0.8,2.6,2.4v0.3
			c-0.8-0.2-1.6-0.4-2.7-0.4c-2.2,0-3.7,1-3.7,2.8v0c0,1.8,1.6,2.7,3.2,2.7c1.5,0,2.5-0.7,3.1-1.5v1.3h1.2V78
			C342.7,76.9,342.4,76,341.8,75.4z M341.5,80.1c0,1.4-1.3,2.4-2.9,2.4c-1.2,0-2.2-0.6-2.2-1.7v0c0-1.1,0.9-1.8,2.5-1.8
			c1.1,0,1.9,0.2,2.6,0.4V80.1z"/>
		<path d="M349.1,74.4c-1.5,0-2.4,0.8-3,1.7v-1.5h-1.3v8.7h1.3v-5c0-1.6,1.1-2.7,2.6-2.7c1.5,0,2.4,1,2.4,2.6v5.1h1.3v-5.4
			C352.4,75.8,351.2,74.4,349.1,74.4z"/>
		<path d="M255.2,25.7h6.4l1.4,3.1h1.4L259,16.9h-1.2l-5.4,11.9h1.4L255.2,25.7z M258.4,18.5l2.7,6h-5.4L258.4,18.5z"/>
		<path d="M268.2,29c1.5,0,2.4-0.8,3-1.7v1.5h1.3v-8.7h-1.3v5c0,1.6-1.1,2.7-2.6,2.7c-1.5,0-2.4-1-2.4-2.6v-5.1h-1.3v5.4
			C264.9,27.6,266.1,29,268.2,29z"/>
		<path d="M277.6,27.9c-1,0-2.1-0.4-3-1.1l-0.7,0.9c1,0.8,2.4,1.3,3.6,1.3c1.7,0,3.1-1,3.1-2.6v0c0-1.6-1.4-2.1-2.8-2.5
			c-1.2-0.4-2.2-0.7-2.2-1.5v0c0-0.7,0.7-1.3,1.7-1.3c0.8,0,1.8,0.3,2.6,0.8l0.6-1c-0.9-0.6-2.1-1-3.1-1c-1.7,0-3,1-3,2.5v0
			c0,1.6,1.5,2.1,2.9,2.5c1.1,0.3,2.2,0.7,2.2,1.5v0C279.4,27.3,278.7,27.9,277.6,27.9z"/>
		<path d="M282.7,26.5c0,1.8,1.1,2.5,2.5,2.5c0.6,0,1.1-0.1,1.6-0.4v-1.1c-0.5,0.2-0.8,0.3-1.3,0.3c-0.9,0-1.5-0.4-1.5-1.4v-5.1h2.8
			v-1.1H284v-2.6h-1.3v2.6h-1.2v1.1h1.2V26.5z"/>
		<path d="M289.7,25.3c0-2.6,1.5-4,3.4-4h0.1v-1.4c-1.6-0.1-2.9,1-3.6,2.4v-2.3h-1.3v8.7h1.3V25.3z"/>
		<path d="M297,29c1.5,0,2.5-0.7,3.1-1.5v1.3h1.2v-5.3c0-1.1-0.3-2-0.9-2.5c-0.6-0.6-1.6-1-2.8-1c-1.3,0-2.2,0.3-3.2,0.7l0.4,1.1
			c0.8-0.4,1.6-0.6,2.6-0.6c1.6,0,2.6,0.8,2.6,2.4v0.3c-0.8-0.2-1.6-0.4-2.7-0.4c-2.2,0-3.7,1-3.7,2.8v0C293.8,28,295.4,29,297,29z
			 M295.1,26.2c0-1.1,0.9-1.8,2.5-1.8c1.1,0,1.9,0.2,2.6,0.4v0.8c0,1.4-1.3,2.4-2.9,2.4C296.1,27.9,295.1,27.3,295.1,26.2
			L295.1,26.2z"/>
		<rect x="303.3" y="16.5" width="1.3" height="12.3"/>
		<rect x="306.9" y="16.8" width="1.5" height="1.4"/>
		<rect x="307" y="20.1" width="1.3" height="8.7"/>
		<path d="M313.2,29c1.5,0,2.5-0.7,3.1-1.5v1.3h1.2v-5.3c0-1.1-0.3-2-0.9-2.5c-0.6-0.6-1.6-1-2.8-1c-1.3,0-2.2,0.3-3.2,0.7l0.4,1.1
			c0.8-0.4,1.6-0.6,2.6-0.6c1.6,0,2.6,0.8,2.6,2.4v0.3c-0.8-0.2-1.6-0.4-2.7-0.4c-2.2,0-3.7,1-3.7,2.8v0C310,28,311.6,29,313.2,29z
			 M311.3,26.2c0-1.1,0.9-1.8,2.5-1.8c1.1,0,1.9,0.2,2.6,0.4v0.8c0,1.4-1.3,2.4-2.9,2.4C312.3,27.9,311.3,27.3,311.3,26.2
			L311.3,26.2z"/>
		<path d="M321,23.8c0-1.6,1.1-2.7,2.6-2.7c1.5,0,2.4,1,2.4,2.6v5.1h1.3v-5.4c0-2.1-1.2-3.5-3.3-3.5c-1.5,0-2.4,0.8-3,1.7v-1.5h-1.3
			v8.7h1.3V23.8z"/>
	</g>
	<g>
		<g>
			<path fill="#9ECF7C" d="M206.2,85.5c-3.4,0-6.8-0.5-10.1-1.5c-1.3-0.4-2-1.7-1.6-3c0.4-1.3,1.7-2,3-1.6c2.8,0.9,5.7,1.3,8.7,1.3
				c16.4,0,29.7-13.3,29.7-29.7s-13.3-29.7-29.7-29.7c-1.3,0-2.4-1.1-2.4-2.4c0-1.3,1.1-2.4,2.4-2.4c19,0,34.5,15.5,34.5,34.5
				C240.7,70,225.3,85.5,206.2,85.5z"/>
		</g>
		<g>
			<path fill="#9ECF7C" d="M187.8,79.7c-0.5,0-1-0.1-1.4-0.4c-9.2-6.5-14.8-17-14.8-28.3c0-8.6,3.2-16.8,9-23.2
				c0.9-1,2.4-1.1,3.4-0.2c1,0.9,1.1,2.4,0.2,3.4c-5,5.5-7.7,12.6-7.7,20c0,9.7,4.7,18.8,12.7,24.4c1.1,0.8,1.4,2.3,0.6,3.4
				C189.4,79.3,188.6,79.7,187.8,79.7z"/>
		</g>
	</g>
	<g>
		<path fill="#00B2BA" d="M206.2,77.1c-6.7,0-13.4-2.6-18.5-7.7c-10.2-10.2-10.2-26.8,0-37c10.2-10.2,26.8-10.2,37,0
			c0.9,0.9,0.9,2.5,0,3.4c-0.9,0.9-2.5,0.9-3.4,0c-8.3-8.3-21.9-8.3-30.2,0c-8.3,8.3-8.3,21.9,0,30.2c8.3,8.3,21.9,8.3,30.2,0
			c5.3-5.3,7.4-12.8,5.7-20.1c-0.3-1.3,0.5-2.6,1.8-2.9c1.3-0.3,2.6,0.5,2.9,1.8c2.2,9-0.4,18.2-6.9,24.7
			C219.6,74.6,212.9,77.1,206.2,77.1z"/>
	</g>
	<g>
		<path fill="#003262" d="M206.2,68.6c-4.6,0-9.2-1.8-12.5-5.2c-3.3-3.3-5.2-7.8-5.2-12.5c0-4.7,1.8-9.1,5.2-12.5
			c3.3-3.3,7.8-5.2,12.5-5.2c4.7,0,9.1,1.8,12.5,5.2c6.9,6.9,6.9,18.1,0,25c-0.2,0.2-0.4,0.4-0.6,0.6c-1,0.9-2.5,0.8-3.4-0.2
			c-0.9-1-0.8-2.5,0.2-3.4c0.2-0.1,0.3-0.3,0.5-0.4c5-5,5-13.1,0-18.1c-2.4-2.4-5.6-3.8-9.1-3.8c-3.4,0-6.6,1.3-9.1,3.8
			c-2.4,2.4-3.8,5.6-3.8,9.1c0,3.4,1.3,6.6,3.8,9.1c3.2,3.2,8,4.5,12.4,3.3c1.3-0.3,2.6,0.4,3,1.7c0.3,1.3-0.4,2.6-1.7,3
			C209.3,68.4,207.8,68.6,206.2,68.6z"/>
	</g>
</g>
</svg>
